<svg xmlns="http://www.w3.org/2000/svg" width="30.15" height="30.194" viewBox="0 0 30.15 30.194">
    <defs>
        <style>
            .cls-1{fill:#0087b1}
        </style>
    </defs>
    <g id="_126509" data-name="126509" transform="translate(-171.479 31.826)">
        <g id="Group_230" data-name="Group 230" transform="translate(171.479 -31.826)">
            <path id="Path_384" d="M24.185 44.364a2.97 2.97 0 0 0-2.154-.988 3.071 3.071 0 0 0-2.179.981l-2.014 2.007c-.166-.089-.331-.172-.491-.255-.229-.115-.446-.223-.631-.338a21.887 21.887 0 0 1-5.245-4.779 12.912 12.912 0 0 1-1.721-2.715c.523-.478 1.007-.975 1.478-1.453.178-.178.357-.363.535-.542a2.924 2.924 0 0 0 0-4.41l-1.74-1.74c-.2-.2-.4-.4-.593-.605-.382-.4-.784-.8-1.2-1.185a3.017 3.017 0 0 0-2.13-.936 3.122 3.122 0 0 0-2.167.937l-.013.013-2.166 2.185A4.662 4.662 0 0 0 .371 33.5a11.171 11.171 0 0 0 .816 4.729 27.439 27.439 0 0 0 4.875 8.132 29.989 29.989 0 0 0 9.986 7.819 15.559 15.559 0 0 0 5.608 1.657c.134.006.274.013.4.013a4.8 4.8 0 0 0 3.677-1.58c.006-.013.019-.019.025-.032a14.487 14.487 0 0 1 1.115-1.153c.274-.261.554-.535.828-.822a3.179 3.179 0 0 0 .962-2.2 3.063 3.063 0 0 0-.981-2.186zm2.281 6.71c-.006 0-.006.006 0 0-.249.268-.5.51-.777.777a16.758 16.758 0 0 0-1.23 1.275 3.072 3.072 0 0 1-2.4 1.013c-.1 0-.2 0-.293-.006a13.822 13.822 0 0 1-4.966-1.491 28.308 28.308 0 0 1-9.406-7.367 25.872 25.872 0 0 1-4.588-7.641 9.1 9.1 0 0 1-.714-3.989 2.925 2.925 0 0 1 .879-1.893l2.173-2.173a1.449 1.449 0 0 1 .969-.452 1.363 1.363 0 0 1 .93.446l.019.019c.389.363.758.739 1.147 1.141.2.2.4.408.605.618l1.74 1.74a1.216 1.216 0 0 1 0 1.976c-.185.185-.363.37-.548.548a32.858 32.858 0 0 1-1.6 1.555c-.013.013-.025.019-.032.032a1.3 1.3 0 0 0-.331 1.447l.019.057a13.967 13.967 0 0 0 2.058 3.358l.006.006a23.39 23.39 0 0 0 5.659 5.149 8.7 8.7 0 0 0 .784.427c.229.115.446.223.631.338.025.013.051.032.076.045a1.381 1.381 0 0 0 .631.159 1.363 1.363 0 0 0 .969-.44l2.179-2.179a1.442 1.442 0 0 1 .962-.478 1.3 1.3 0 0 1 .918.465l.013.013 3.511 3.511a1.26 1.26 0 0 1 .008 1.994z" class="cls-1" data-name="Path 384" transform="translate(-.344 -25.66)"/>
            <path id="Path_385" d="M245.652 87.632a8.2 8.2 0 0 1 6.679 6.679.855.855 0 0 0 .848.714 1.138 1.138 0 0 0 .147-.013.861.861 0 0 0 .707-.994 9.917 9.917 0 0 0-8.081-8.081.865.865 0 0 0-.994.7.851.851 0 0 0 .694.995z" class="cls-1" data-name="Path 385" transform="translate(-229.356 -80.45)"/>
            <path id="Path_386" d="M263.081 13.319A16.33 16.33 0 0 0 249.775.013a.859.859 0 1 0-.28 1.7A14.586 14.586 0 0 1 261.386 13.6a.855.855 0 0 0 .848.714 1.138 1.138 0 0 0 .147-.013.844.844 0 0 0 .7-.982z" class="cls-1" data-name="Path 386" transform="translate(-232.944)"/>
        </g>
    </g>
</svg>
