<svg xmlns="http://www.w3.org/2000/svg" id="instagram" width="30.031" height="30.032" viewBox="0 0 30.031 30.032">
    <defs>
        <style>
            .cls-1{fill:#fff}.cls-2{fill:#0d004d}
        </style>
    </defs>
    <rect id="Rectangle_167" width="28" height="29" class="cls-1" data-name="Rectangle 167" rx="8" transform="translate(1.432 1)"/>
    <path id="Path_239" d="M21.9 0H8.128A8.138 8.138 0 0 0 0 8.129V21.9a8.138 8.138 0 0 0 8.129 8.129H21.9a8.138 8.138 0 0 0 8.131-8.129V8.129A8.138 8.138 0 0 0 21.9 0zm6.37 21.9a6.376 6.376 0 0 1-6.37 6.371H8.128A6.376 6.376 0 0 1 1.76 21.9V8.129a6.376 6.376 0 0 1 6.368-6.368H21.9a6.376 6.376 0 0 1 6.37 6.368zm0 0" class="cls-2" data-name="Path 239" transform="translate(.001)"/>
    <path id="Path_240" d="M124.215 116a8.212 8.212 0 1 0 8.211 8.212 8.221 8.221 0 0 0-8.211-8.212zm0 14.663a6.451 6.451 0 1 1 6.451-6.451 6.458 6.458 0 0 1-6.451 6.455zm0 0" class="cls-2" data-name="Path 240" transform="translate(-109.2 -109.2)"/>
    <path id="Path_241" d="M360.4 66.285a2.427 2.427 0 1 0 2.427 2.426 2.429 2.429 0 0 0-2.427-2.426zm0 3.092a.666.666 0 1 1 .666-.666.667.667 0 0 1-.666.666zm0 0" class="cls-2" data-name="Path 241" transform="translate(-336.98 -62.397)"/>
</svg>
