<svg height="640pt" viewBox="-20 -20 640 640" width="640pt" xmlns="http://www.w3.org/2000/svg"><path d="m300 120c-33.132812 0-60-26.867188-60-60s26.867188-60 60-60 60 26.867188 60 60c-.035156 33.125-26.875 59.964844-60 60zm0-100c-22.089844 0-40 17.910156-40 40s17.910156 40 40 40 40-17.910156 40-40-17.910156-40-40-40zm0 0"/><path d="m470 160c-33.132812 0-60-26.867188-60-60s26.867188-60 60-60 60 26.867188 60 60c-.035156 33.125-26.875 59.964844-60 60zm0-100c-22.089844 0-40 17.910156-40 40s17.910156 40 40 40 40-17.910156 40-40-17.910156-40-40-40zm0 0"/><path d="m130 160c-33.132812 0-60-26.867188-60-60s26.867188-60 60-60 60 26.867188 60 60c-.035156 33.125-26.875 59.964844-60 60zm0-100c-22.089844 0-40 17.910156-40 40s17.910156 40 40 40 40-17.910156 40-40-17.910156-40-40-40zm0 0"/><path d="m290 370h20v230h-20zm0 0"/><path d="m560.667969 195.660156c-14.90625-10.25-32.578125-15.707031-50.667969-15.660156h-80c-4.859375.042969-9.703125.484375-14.492188 1.308594-6.484374-10.121094-14.929687-18.84375-24.839843-25.648438-14.90625-10.25-32.578125-15.707031-50.667969-15.660156h-80c-30.570312.023438-59.039062 15.582031-75.570312 41.296875-4.765626-.820313-9.589844-1.253906-14.429688-1.296875h-80c-18.070312-.046875-35.734375 5.40625-50.628906 15.640625-24.613282 16.746094-39.355469 44.589844-39.371094 74.359375v60c.0390625 27.304688 15.929688 52.101562 40.71875 63.539062 6.109375 2.851563 12.605469 4.773438 19.28125 5.679688v200.78125h20v-360h-20v139c-3.757812-.757812-7.417969-1.964844-10.890625-3.589844-17.710937-8.179687-29.074219-25.898437-29.109375-45.410156v-60c.023438-23.171875 11.503906-44.835938 30.667969-57.859375 11.574219-7.953125 25.292969-12.183594 39.332031-12.140625h80c1.738281 0 3.429688.191406 5.140625.308594-3.382813 9.535156-5.121094 19.574218-5.140625 29.691406v80c.003906 12.648438 3.460938 25.046875 10 35.867188v254.132812h20v-232.640625c8.929688 6.25 19.210938 10.300781 30 11.839844v220.800781h20v-400h-20v159c-23.265625-4.785156-39.96875-25.25-40-49v-80c.042969-38.640625 31.359375-69.957031 70-70h80c14.054688-.039062 27.789062 4.199219 39.371094 12.15625 19.140625 13.039062 30.605468 34.683594 30.628906 57.84375v80c-.019531 19.578125-11.460938 37.347656-29.28125 45.460938-3.414062 1.613281-7.011719 2.800781-10.71875 3.539062v-159h-20v400h20v-220.78125c6.617188-.890625 13.0625-2.777344 19.109375-5.601562 3.816406-1.765626 7.460937-3.886719 10.890625-6.328126v232.710938h20v-254.300781c6.527344-10.761719 9.984375-23.113281 10-35.699219v-80c-.039062-10.117188-1.789062-20.15625-5.171875-29.691406 1.71875-.117188 3.421875-.308594 5.171875-.308594h80c14.054688-.039062 27.789062 4.199219 39.371094 12.15625 19.140625 13.039062 30.605468 34.683594 30.628906 57.84375v60c-.019531 19.578125-11.460938 37.347656-29.28125 45.460938-3.414062 1.613281-7.011719 2.800781-10.71875 3.539062v-139h-20v360h20v-200.78125c6.617188-.890625 13.0625-2.777344 19.109375-5.601562 24.898437-11.382813 40.875-36.238282 40.890625-63.617188v-60c-.015625-29.757812-14.734375-57.585938-39.332031-74.339844zm0 0"/><path d="m460 410h20v190h-20zm0 0"/><path d="m120 410h20v190h-20zm0 0"/></svg>