<?xml version="1.0" encoding="iso-8859-1"?>
<!-- Generator: Adobe Illustrator 19.0.0, SVG Export Plug-In . SVG Version: 6.00 Build 0)  -->
<svg version="1.1" id="Layer_1" xmlns="http://www.w3.org/2000/svg" xmlns:xlink="http://www.w3.org/1999/xlink" x="0px" y="0px"
	 viewBox="0 0 512 512" style="enable-background:new 0 0 512 512;" xml:space="preserve">
<g>
	<g>
		<g>
			<path d="M490.14,178.611l-42.868-8.572c-2.839-9.047-6.48-17.834-10.867-26.228l24.252-36.378
				c7.165-10.748,5.737-25.176-3.398-34.312l-18.38-18.38c-9.134-9.135-23.563-10.566-34.312-3.398l-36.378,24.252
				c-8.395-4.387-17.183-8.028-26.228-10.867l-8.574-42.868C330.854,9.193,319.641,0,306.724,0h-25.995
				c-12.916,0-24.131,9.193-26.664,21.86l-8.574,42.868c-9.046,2.839-17.834,6.48-26.228,10.867l-36.378-24.252
				c-10.748-7.165-25.179-5.738-34.312,3.396l-18.381,18.382c-9.133,9.134-10.561,23.563-3.396,34.31l24.252,36.378
				c-4.387,8.395-8.028,17.182-10.867,26.228l-42.868,8.573c-12.666,2.534-21.86,13.747-21.86,26.665v25.993
				c0,12.917,9.193,24.132,21.86,26.665l27.755,5.55c4.379,0.874,8.637-1.964,9.512-6.342c0.875-4.378-1.964-8.637-6.342-9.512
				l-27.755-5.55c-5.134-1.025-8.861-5.573-8.861-10.809v-25.993c0-5.236,3.727-9.784,8.861-10.81l47.645-9.529
				c2.984-0.597,5.38-2.819,6.2-5.75c3.105-11.1,7.545-21.812,13.193-31.84c1.494-2.652,1.371-5.919-0.317-8.452l-26.955-40.433
				c-2.905-4.357-2.325-10.208,1.378-13.909l18.381-18.382c3.703-3.703,9.552-4.281,13.909-1.376L214.35,91.75
				c2.532,1.689,5.799,1.811,8.452,0.318c10.029-5.649,20.741-10.087,31.84-13.192c2.931-0.82,5.152-3.215,5.75-6.2l9.529-47.645
				c1.027-5.135,5.573-8.862,10.809-8.862h25.995c5.236,0,9.783,3.727,10.809,8.862l9.529,47.645c0.597,2.985,2.819,5.38,5.75,6.2
				c11.098,3.105,21.811,7.543,31.84,13.192c2.653,1.493,5.919,1.371,8.452-0.318l40.434-26.955
				c4.357-2.905,10.207-2.327,13.909,1.378l18.38,18.38c3.704,3.704,4.282,9.553,1.378,13.91l-26.955,40.433
				c-1.689,2.533-1.812,5.8-0.317,8.452c5.648,10.028,10.087,20.74,13.193,31.84c0.82,2.931,3.216,5.152,6.2,5.75l47.645,9.529
				c5.135,1.026,8.861,5.574,8.861,10.81v25.993c0,5.236-3.727,9.784-8.861,10.81l-47.645,9.529c-2.984,0.597-5.38,2.819-6.2,5.749
				c-3.105,11.098-7.544,21.81-13.193,31.84c-1.494,2.653-1.371,5.919,0.317,8.452l26.955,40.433
				c2.905,4.357,2.325,10.208-1.378,13.909l-18.381,18.382c-3.703,3.703-9.551,4.281-13.909,1.376l-40.433-26.954
				c-3.714-2.477-8.734-1.474-11.21,2.242c-2.477,3.714-1.472,8.734,2.242,11.21l40.433,26.955
				c4.582,3.055,9.831,4.548,15.057,4.548c7.03,0,14.015-2.704,19.254-7.944l18.381-18.382c9.133-9.134,10.561-23.563,3.396-34.31
				l-24.252-36.378c4.387-8.396,8.028-17.183,10.867-26.228l42.868-8.572c12.666-2.534,21.86-13.748,21.86-26.665v-25.993
				C512,192.359,502.807,181.146,490.14,178.611z"/>
			<path d="M320.674,280.253h-75.453c-4.465,0-8.084,3.618-8.084,8.084c0,4.466,3.62,8.084,8.084,8.084h75.453
				c7.43,0,13.474,6.044,13.474,13.474v10.779c0,7.43-6.044,13.474-13.474,13.474h-75.453c-4.465,0-8.084,3.619-8.084,8.084
				c0,4.466,3.62,8.084,8.084,8.084h75.453c7.43,0,13.474,6.044,13.474,13.474v10.779c0,7.43-6.044,13.474-13.474,13.474h-75.453
				c-4.465,0-8.084,3.618-8.084,8.084c0,4.466,3.62,8.084,8.084,8.084h75.453c7.43,0,13.474,6.044,13.474,13.474v10.779
				c0,7.43-6.044,13.474-13.474,13.474h-75.453c-4.465,0-8.084,3.618-8.084,8.084c0,4.466,3.62,8.084,8.084,8.084h75.453
				c7.43,0,13.474,6.044,13.474,13.474v10.779c0,7.43-6.044,13.474-13.474,13.474h-146.44c-7.644,0-14.838-2.97-20.256-8.36
				c-8.553-8.51-19.843-13.198-31.79-13.198H102.4v-88.926c0-4.466-3.62-8.084-8.084-8.084s-8.084,3.618-8.084,8.084v107.789
				c0,1.486-1.209,2.695-2.695,2.695H59.284V385.347c0-4.466-3.62-8.084-8.084-8.084s-8.084,3.618-8.084,8.084v110.484H18.863
				c-1.485,0-2.695-1.208-2.695-2.695V309.895c0-1.486,1.209-2.695,2.695-2.695h64.674c1.485,0,2.695,1.208,2.695,2.695v43.116
				c0,4.466,3.62,8.084,8.084,8.084s8.084-3.618,8.084-8.084v-24.253h19.492c12.778,0,24.079-8.146,28.121-20.268l3.009-9.032
				c9.324-27.965,14.051-57.093,14.051-86.574c0-7.43,6.044-13.474,13.474-13.474c6.479,0,12.569,2.523,17.15,7.104
				s7.103,10.671,7.103,17.15v86.229c0,4.465,3.62,8.084,8.084,8.084c4.465,0,8.084-3.618,8.084-8.084v-86.229
				c0-10.797-4.204-20.949-11.839-28.584c-7.635-7.635-17.786-11.84-28.584-11.84c-16.345,0-29.642,13.298-29.642,29.642
				c0,27.74-4.448,55.147-13.221,81.461l-3.011,9.032c-1.837,5.51-6.973,9.213-12.782,9.213H102.4v-2.695
				c0-10.401-8.463-18.863-18.863-18.863H18.863C8.463,291.032,0,299.494,0,309.895v183.242C0,503.537,8.463,512,18.863,512h64.674
				c10.401,0,18.863-8.463,18.863-18.863v-2.695h19.787c7.644,0,14.884,3.016,20.386,8.491c8.469,8.426,19.713,13.067,31.66,13.067
				h146.441c16.345,0,29.642-13.298,29.642-29.642v-10.779c0-8.485-3.584-16.149-9.317-21.558
				c5.733-5.409,9.317-13.073,9.317-21.558v-10.779c0-8.485-3.584-16.149-9.317-21.558c5.733-5.409,9.317-13.073,9.317-21.558
				v-10.779c0-8.485-3.584-16.149-9.317-21.558c5.733-5.409,9.317-13.073,9.317-21.558v-10.779
				C350.316,293.551,337.019,280.253,320.674,280.253z"/>
			<path d="M293.701,259.775c2.119,0,4.265-0.163,6.423-0.5c22.608-3.53,38.129-24.793,34.6-47.399
				c-3.528-22.608-24.796-38.133-47.398-34.602c-22.608,3.53-38.129,24.793-34.6,47.399
				C255.918,245.122,273.62,259.774,293.701,259.775z M289.82,193.248c13.8-2.143,26.777,7.321,28.931,21.119
				c2.154,13.799-7.32,26.777-21.118,28.932c-13.798,2.154-26.777-7.321-28.931-21.119
				C266.548,208.381,276.022,195.403,289.82,193.248z"/>
			<path d="M366.829,296.421c2.129,0,4.253-0.835,5.841-2.494c23.782-24.85,34.382-58.57,29.084-92.514
				c-2.692-17.244-9.208-33.113-19.371-47.163c-2.616-3.616-7.669-4.43-11.289-1.813c-3.617,2.617-4.429,7.67-1.813,11.289
				c8.652,11.964,14.203,25.483,16.497,40.18c4.514,28.925-4.521,57.662-24.79,78.843c-3.087,3.225-2.975,8.343,0.251,11.43
				C362.807,295.677,364.82,296.421,366.829,296.421z"/>
			<path d="M361.144,142.298c2.688-3.565,1.977-8.634-1.589-11.321c-23.838-17.972-53.206-25.34-82.691-20.73
				c-33.834,5.28-62.67,25.561-79.115,55.644c-2.142,3.918-0.702,8.829,3.215,10.972c1.231,0.673,2.56,0.993,3.871,0.992
				c2.86,0,5.632-1.521,7.1-4.207c14.017-25.64,38.591-42.926,67.422-47.425c25.126-3.925,50.151,2.352,70.464,17.666
				C353.388,146.574,358.457,145.864,361.144,142.298z"/>
		</g>
	</g>
</g>
<g>
</g>
<g>
</g>
<g>
</g>
<g>
</g>
<g>
</g>
<g>
</g>
<g>
</g>
<g>
</g>
<g>
</g>
<g>
</g>
<g>
</g>
<g>
</g>
<g>
</g>
<g>
</g>
<g>
</g>
</svg>
