<svg height="481pt" viewBox="0 0 481 481.7867" width="481pt" xmlns="http://www.w3.org/2000/svg"><path d="m264.046875 165.386719c-48-52.800781-128.800781-56-180.800781-8.800781-2.398438 2.402343-5.597656 4.800781-8 8l-3.199219 5.601562 4 4.800781.800781.796875c47.199219 52 128 55.203125 180 8 2.398438-2.398437 5.597656-4.796875 8-8l4-5.597656zm-110.398437 4.800781c0-8.800781 7.199218-16 16-16 8.796874 0 16 7.199219 16 16s-7.203126 16-16 16c-8.800782 0-16-7.199219-16-16zm5.597656-30.402344c-16.800782 5.601563-25.597656 23.203125-20.800782 40 3.203126 9.601563 10.402344 17.601563 20.800782 20.800782-24.800782-2.398438-48.800782-12.800782-67.199219-30.398438 19.199219-17.601562 42.398437-28 67.199219-30.402344zm20.800781 60.800782c16.800781-5.597657 25.601563-23.199219 20.800781-40-3.199218-9.597657-10.402344-17.597657-20.800781-20.800782 24.800781 2.402344 48.800781 12.800782 67.199219 30.402344-19.199219 17.597656-42.398438 28-67.199219 30.398438zm0 0"/><path d="m169.648438 34.1875c-75.203126 0-136 60.800781-136 136s60.796874 136 136 136c75.199218 0 136-60.800781 136-136s-60.800782-136-136-136zm0 256c-66.402344 0-120-53.601562-120-120 0-66.402344 53.597656-120 120-120 66.398437 0 120 53.597656 120 120 0 66.398438-53.601563 120-120 120zm0 0"/><path d="m441.648438 346.1875v-264c0-22.402344-17.601563-40-40-40h-88v16h88c13.597656 0 24 10.398438 24 24v264zm0 0"/><path d="m41.648438 322.1875v80c0 22.398438 17.597656 40 40 40h280v-16h-280c-13.601563 0-24-10.402344-24-24v-80zm0 0"/><path d="m337.648438 82.1875h72v16h-72zm0 0"/><path d="m353.648438 122.1875h56v16h-56zm0 0"/><path d="m353.648438 162.1875h56v16h-56zm0 0"/><path d="m353.648438 202.1875h56v16h-56zm0 0"/><path d="m353.648438 242.1875h56v16h-56zm0 0"/><path d="m361.648438 282.1875h48v16h-48zm0 0"/><path d="m73.648438 354.1875h216v16h-216zm0 0"/><path d="m73.648438 386.1875h248v16h-248zm0 0"/><path d="m113.648438 234.1875h112v16h-112zm0 0"/><path d="m113.648438 90.1875h112v16h-112zm0 0"/><path d="m388.046875 337.386719c-4.800781-4.800781-10.398437-7.199219-16.800781-7.199219h-5.597656l-57.601563-64.800781c52.800781-76.800781 34.398437-181.601563-42.398437-235.199219-76.800782-53.601562-182.402344-33.601562-235.203126 42.398438-52.796874 76-34.398437 181.601562 42.402344 235.199218 60.800782 42.402344 142.398438 40 200.800782-6.398437l56 63.199219v6.402343c0 6.398438 2.398437 12.796875 7.199218 16.796875l83.199219 83.203125c14.398437 14.398438 36.800781 14.398438 51.199219 0 14.402344-14.402343 14.402344-36.800781 0-51.203125zm-370.398437-167.199219c0-84 68-152 152-152s152 68 152 152-68 152-152 152-152-68-152-152zm268 121.597656c4-4 8.796874-8.796875 12-12.796875l52.796874 59.199219-12.796874 12zm160 174.402344c-5.601563 0-10.402344-2.402344-14.402344-5.601562l-83.199219-83.199219c-1.601563-1.601563-2.398437-3.199219-2.398437-5.601563v-6.398437l19.199218-19.199219h6.398438c2.402344 0 4 .800781 5.601562 2.398438l83.199219 83.199218c8 8 8 20.800782 0 28.800782-4 3.199218-9.601563 5.601562-14.398437 5.601562zm0 0"/></svg>