<?xml version="1.0" encoding="utf-8"?>
<!-- Generator: Adobe Illustrator 16.0.0, SVG Export Plug-In . SVG Version: 6.00 Build 0)  -->
<!DOCTYPE svg PUBLIC "-//W3C//DTD SVG 1.1//EN" "http://www.w3.org/Graphics/SVG/1.1/DTD/svg11.dtd">
<svg version="1.1" id="Layer_1" xmlns="http://www.w3.org/2000/svg" xmlns:xlink="http://www.w3.org/1999/xlink" x="0px" y="0px"
	 width="443.613px" height="144.596px" viewBox="0 0 443.613 144.596" enable-background="new 0 0 443.613 144.596"
	 xml:space="preserve">
<g>
	<defs>
		<rect id="SVGID_1_" width="443.613" height="144.596"/>
	</defs>
	<clipPath id="SVGID_2_">
		<use xlink:href="#SVGID_1_"  overflow="visible"/>
	</clipPath>
	<path clip-path="url(#SVGID_2_)" fill="#020202" d="M383.78,105.629c-1.11-0.01-2.236-0.054-3.485-0.142
		c-0.411-0.034-0.799-0.048-1.16-0.099c-1.165-0.098-2.22-0.224-3.208-0.372c-0.338-0.048-0.663-0.111-0.995-0.176l-0.402-0.078
		c-0.66-0.111-1.317-0.254-1.962-0.393l-0.353-0.081c-0.428-0.094-0.852-0.187-1.277-0.304c-0.844-0.207-1.688-0.45-2.578-0.734
		c-0.582-0.18-1.19-0.393-1.939-0.65c-0.333-0.128-0.681-0.253-1.007-0.379c-1.309-0.492-2.583-1.027-3.805-1.603l-0.117-0.064
		c-0.068-0.033-0.146-0.063-0.215-0.111c-2.829-1.354-5.474-2.919-7.861-4.635l-0.247-0.182l0.027-0.041
		c-11.73-8.592-19.384-21.713-21.046-36.099H251.82c2.938,19.403,19.863,33.978,39.503,33.978c8.573,0,16.771-2.726,23.726-7.868
		v-0.073l0.132-0.096c1.66-1.241,3.046-2.429,4.24-3.616l0.229-0.223l8.766,8.393l-0.19,0.232
		c-10.19,12.195-28.593,15.415-36.902,15.415c-19.926,0-37.74-11.017-46.657-28.803c-8.761,16.814-25.899,27.232-44.886,27.232
		c-0.342,0-35.301-0.013-35.468-0.013l-0.316-0.007V2.875l0.316-0.007c0.154,0,35.126-0.01,35.468-0.01
		c18.986,0,36.125,10.421,44.886,27.236c8.917-17.785,26.731-28.806,46.657-28.806c19.616,0,37.298,10.784,46.324,28.184
		c3.711-7.144,9.077-13.395,15.548-18.134l0.22-0.223c2.388-1.719,5.032-3.288,7.868-4.652c0.069-0.037,0.154-0.071,0.222-0.108
		l0.109-0.04c1.201-0.575,2.477-1.123,3.799-1.621c0.326-0.125,0.674-0.253,1.007-0.375c0.64-0.227,1.283-0.45,1.939-0.65
		c0.905-0.287,1.752-0.531,2.578-0.744c0.477-0.118,0.959-0.23,1.446-0.334l0.184-0.044c0.645-0.142,1.302-0.271,1.962-0.393
		l0.478-0.088c0.304-0.061,0.609-0.111,0.92-0.162c0.974-0.149,2.03-0.274,3.217-0.386c0.353-0.03,0.729-0.057,1.092-0.084
		c1.316-0.088,2.439-0.139,3.498-0.142l0.223-0.004l0.098,0.004c1.092,0.003,2.231,0.054,3.502,0.135
		c0.377,0.03,0.766,0.054,1.147,0.091c1.179,0.112,2.23,0.237,3.204,0.386c0.308,0.051,0.614,0.101,0.92,0.162l0.485,0.088
		c0.658,0.122,1.309,0.251,1.952,0.393l0.139,0.033c0.502,0.109,0.999,0.22,1.501,0.345c0.819,0.213,1.665,0.457,2.576,0.744
		c0.716,0.217,1.409,0.461,1.938,0.65c0.263,0.095,0.525,0.196,0.786,0.291l0.23,0.084c1.294,0.494,2.569,1.036,3.799,1.621
		l0.328,0.148c2.838,1.374,5.488,2.937,7.864,4.652l0.262,0.189l-0.032,0.047c2.141,1.556,4.216,3.349,6.193,5.331l0.233,0.237
		l-8.795,8.412l-0.228-0.219c-1.662-1.651-3.477-3.167-5.382-4.496l-0.203-0.145c-0.211-0.139-0.414-0.281-0.619-0.416
		c-0.834-0.545-1.676-1.052-2.498-1.519l-0.255-0.146c-0.108-0.064-0.203-0.121-0.31-0.175c-2.154-1.161-4.449-2.132-6.813-2.886
		c-0.147-0.04-0.643-0.179-0.643-0.179c-0.968-0.291-1.955-0.551-2.953-0.768c-0.287-0.061-0.571-0.118-0.855-0.172
		c-0.907-0.18-1.9-0.332-3.019-0.464c-0.117-0.013-0.215-0.024-0.325-0.04c-0.144-0.021-0.291-0.038-0.443-0.051
		c-1.341-0.129-2.598-0.19-3.823-0.19c-1.233,0-2.483,0.061-3.831,0.19c-0.145,0.013-0.302,0.037-0.436,0.051l-0.326,0.04
		c-1.107,0.132-2.099,0.284-3.01,0.464c-0.288,0.054-0.577,0.111-0.853,0.172c-1.003,0.217-1.994,0.477-2.96,0.768
		c0,0-0.534,0.149-0.645,0.186c-2.376,0.747-4.663,1.718-6.819,2.882c-0.106,0.057-0.205,0.115-0.314,0.179
		c-0.078,0.044-0.155,0.092-0.242,0.139c-0.882,0.497-1.721,1.008-2.501,1.519c-0.274,0.182-0.546,0.372-0.822,0.561
		c-10.768,7.493-17.209,19.768-17.209,32.848c0,13.07,6.441,25.353,17.209,32.838c0.309,0.21,0.563,0.385,0.822,0.568
		c0.771,0.507,1.61,1.011,2.501,1.515c0.087,0.051,0.166,0.092,0.259,0.149c0.103,0.061,0.191,0.108,0.298,0.176
		c2.163,1.154,4.456,2.121,6.819,2.882c0.135,0.041,0.272,0.071,0.416,0.115l0.228,0.061c0.967,0.294,1.958,0.549,2.961,0.769
		c0.277,0.063,0.567,0.118,0.853,0.183c0.925,0.175,1.912,0.328,3.021,0.453l0.305,0.037c0.145,0.024,0.302,0.044,0.446,0.057
		c1.366,0.137,2.619,0.2,3.831,0.2c1.211,0,2.459-0.063,3.823-0.2c0.152-0.013,0.3-0.032,0.443-0.057l0.325-0.037
		c1.104-0.125,2.095-0.278,3.019-0.453c0.284-0.064,0.568-0.119,0.855-0.183c0.998-0.22,1.985-0.475,2.953-0.769l0.072-0.017
		c0.188-0.057,0.375-0.108,0.57-0.159c2.363-0.761,4.658-1.728,6.813-2.882c0.094-0.051,0.191-0.115,0.295-0.169
		c0.086-0.054,0.179-0.105,0.27-0.156c0.838-0.473,1.673-0.98,2.498-1.515c0.188-0.125,0.378-0.264,0.57-0.389l0.252-0.18
		c1.905-1.333,3.732-2.838,5.382-4.489l0.228-0.223l8.795,8.412l-0.233,0.23c-1.978,1.988-4.053,3.774-6.193,5.348l-0.229,0.229
		c-2.376,1.716-5.026,3.281-7.864,4.642c-0.058,0.041-0.328,0.148-0.328,0.148c-1.242,0.596-2.523,1.137-3.799,1.623l-0.112,0.038
		c-0.299,0.121-0.6,0.24-0.904,0.341c-0.75,0.258-1.356,0.471-1.938,0.65c-0.894,0.284-1.735,0.527-2.576,0.734
		c-0.438,0.117-0.882,0.21-1.337,0.313l-0.29,0.071c-0.656,0.139-1.307,0.281-1.965,0.393l-0.413,0.078
		c-0.326,0.064-0.652,0.128-0.992,0.176c-0.985,0.148-2.037,0.274-3.204,0.372c-0.382,0.051-0.771,0.064-1.147,0.099
		c-1.258,0.088-2.383,0.132-3.448,0.142h-0.151H383.78z M199.78,92.245c21.395,0,38.782-17.403,38.782-38.781
		c0-21.388-17.388-38.784-38.782-38.784c-0.082,0-15.403,0.007-23.731,0.013V92.22C184.377,92.235,199.698,92.245,199.78,92.245
		 M330.823,47.433c-2.942-19.399-19.858-33.974-39.5-33.974c-19.64,0-36.564,14.575-39.503,33.974H330.823z"/>
	<path clip-path="url(#SVGID_2_)" fill="#020202" d="M383.957,1.613c0.06,0,0.11,0.006,0.15,0.006
		c1.149,0.004,2.295,0.058,3.428,0.136c0.381,0.027,0.761,0.054,1.137,0.088c1.074,0.098,2.131,0.223,3.198,0.385
		c0.46,0.068,0.923,0.163,1.38,0.247c0.658,0.118,1.311,0.25,1.952,0.392c0.548,0.115,1.082,0.241,1.617,0.376
		c0.86,0.22,1.716,0.467,2.564,0.734c0.657,0.203,1.296,0.423,1.927,0.65c0.339,0.118,0.674,0.25,1.014,0.372
		c1.276,0.487,2.535,1.028,3.771,1.61c0.107,0.044,0.215,0.098,0.318,0.145c2.744,1.326,5.37,2.855,7.822,4.621l-0.03,0.05
		c2.295,1.651,4.426,3.498,6.412,5.49l-8.328,7.963c-1.671-1.661-3.488-3.18-5.426-4.529c-0.284-0.193-0.546-0.383-0.829-0.565
		c-0.82-0.542-1.662-1.052-2.515-1.529c-0.197-0.105-0.381-0.22-0.569-0.328c-2.172-1.174-4.479-2.145-6.874-2.906
		c-0.213-0.061-0.421-0.122-0.642-0.186c-0.976-0.291-1.977-0.548-2.981-0.768c-0.29-0.064-0.573-0.118-0.859-0.176
		c-1.001-0.196-2.021-0.348-3.047-0.47c-0.251-0.024-0.504-0.068-0.771-0.088c-1.272-0.125-2.55-0.193-3.857-0.193
		c-1.305,0-2.586,0.068-3.859,0.193c-0.262,0.02-0.516,0.064-0.768,0.088c-1.032,0.122-2.04,0.274-3.041,0.47
		c-0.294,0.058-0.578,0.112-0.864,0.176c-1.003,0.22-2.006,0.477-2.979,0.768c-0.217,0.064-0.437,0.125-0.644,0.186
		c-2.39,0.761-4.689,1.732-6.87,2.906c-0.197,0.108-0.377,0.223-0.569,0.328c-0.861,0.477-1.701,0.987-2.521,1.529
		c-0.278,0.182-0.548,0.372-0.827,0.565c-10.47,7.286-17.343,19.388-17.343,33.115c0,13.713,6.873,25.822,17.343,33.115
		c0.279,0.183,0.549,0.375,0.827,0.562c0.82,0.542,1.66,1.046,2.521,1.525c0.192,0.108,0.372,0.224,0.569,0.328
		c2.181,1.167,4.48,2.146,6.87,2.899c0.207,0.063,0.427,0.128,0.644,0.192c0.974,0.294,1.977,0.544,2.979,0.771
		c0.286,0.061,0.57,0.111,0.864,0.172c1.001,0.19,2.009,0.349,3.041,0.471c0.252,0.027,0.506,0.071,0.768,0.091
		c1.273,0.125,2.555,0.196,3.859,0.196c1.308,0,2.585-0.071,3.857-0.196c0.267-0.02,0.52-0.063,0.771-0.091
		c1.026-0.122,2.046-0.28,3.047-0.471c0.286-0.061,0.569-0.111,0.859-0.172c1.005-0.228,2.006-0.478,2.981-0.771
		c0.221-0.064,0.429-0.129,0.642-0.192c2.395-0.754,4.702-1.732,6.874-2.899c0.188-0.104,0.372-0.22,0.569-0.328
		c0.853-0.479,1.694-0.983,2.515-1.525c0.283-0.187,0.545-0.379,0.829-0.562c1.938-1.359,3.755-2.872,5.426-4.536l8.328,7.959
		c-1.986,1.999-4.117,3.85-6.412,5.49l0.03,0.054c-2.452,1.767-5.078,3.291-7.822,4.617c-0.104,0.051-0.211,0.099-0.318,0.156
		c-1.235,0.582-2.494,1.116-3.771,1.6c-0.34,0.125-0.675,0.25-1.014,0.375c-0.631,0.221-1.27,0.44-1.927,0.644
		c-0.849,0.273-1.704,0.514-2.564,0.73c-0.535,0.143-1.069,0.268-1.617,0.378c-0.642,0.149-1.294,0.274-1.952,0.396
		c-0.457,0.085-0.92,0.179-1.38,0.25c-1.067,0.163-2.124,0.281-3.198,0.376c-0.376,0.04-0.756,0.063-1.137,0.098
		c-1.133,0.068-2.278,0.125-3.428,0.132h-0.15h-0.038h-0.04h-0.146c-1.158-0.007-2.297-0.063-3.424-0.132
		c-0.377-0.034-0.766-0.058-1.143-0.098c-1.077-0.095-2.14-0.213-3.187-0.376c-0.472-0.071-0.932-0.165-1.391-0.25
		c-0.656-0.122-1.307-0.247-1.953-0.396c-0.54-0.11-1.086-0.235-1.62-0.378c-0.862-0.217-1.719-0.457-2.568-0.73
		c-0.646-0.203-1.279-0.423-1.92-0.644c-0.341-0.125-0.677-0.25-1.006-0.375c-1.279-0.483-2.547-1.018-3.769-1.6
		c-0.122-0.058-0.22-0.105-0.327-0.156c-2.748-1.326-5.38-2.851-7.824-4.617l0.029-0.054c-11.577-8.354-19.551-21.391-21.191-36.329
		h-80.997c2.78,19.568,19.55,34.624,39.881,34.624c9.027,0,17.332-3.004,24.05-8.034v-0.063c1.503-1.123,2.953-2.334,4.277-3.646
		l8.322,7.959c-9.403,11.265-26.696,15.296-36.649,15.296c-20.518,0-38.245-11.906-46.646-29.194
		c-8.29,16.392-25.269,27.629-44.898,27.629c-0.147,0-35.307-0.007-35.461-0.007v-6.782v-4.408V14.378V5.902V3.196
		c0.154,0,35.314-0.011,35.461-0.011c19.629,0,36.608,11.248,44.898,27.636c8.401-17.288,26.129-29.208,46.646-29.208
		c20.256,0,37.795,11.632,46.324,28.565c3.768-7.458,9.265-13.895,15.983-18.753l-0.029-0.05c2.444-1.766,5.076-3.295,7.824-4.621
		c0.107-0.047,0.205-0.101,0.327-0.145c1.222-0.582,2.489-1.123,3.769-1.61c0.329-0.126,0.665-0.254,1.006-0.372
		c0.641-0.227,1.273-0.447,1.92-0.65c0.85-0.267,1.706-0.514,2.568-0.734c0.534-0.135,1.08-0.261,1.62-0.376
		c0.646-0.142,1.297-0.274,1.953-0.392c0.459-0.084,0.919-0.179,1.391-0.247c1.047-0.162,2.109-0.287,3.187-0.385
		c0.377-0.034,0.766-0.061,1.143-0.088c1.127-0.078,2.266-0.132,3.424-0.136c0.048,0,0.092-0.006,0.146-0.006h0.029h0.047
		 M251.443,47.757h79.761c-2.777-19.568-19.548-34.623-39.88-34.623C270.993,13.134,254.224,28.189,251.443,47.757 M199.78,92.569
		c21.601,0,39.109-17.514,39.109-39.105c0-21.601-17.508-39.113-39.109-39.113c-0.081,0-15.805,0.01-24.058,0.017v78.181
		C183.975,92.559,199.699,92.569,199.78,92.569 M383.957,0.96h-0.038h-0.04c-0.032,0-0.066,0.007-0.106,0.007h-0.039
		c-1.064,0.006-2.19,0.054-3.475,0.135l-0.045,0.007c-0.364,0.027-0.732,0.05-1.103,0.084c-1.196,0.108-2.243,0.234-3.229,0.389
		c-0.313,0.051-0.627,0.108-0.935,0.163c-0.155,0.03-0.312,0.064-0.473,0.087c-0.731,0.136-1.376,0.268-1.972,0.4l-0.193,0.044
		c-0.475,0.104-0.97,0.209-1.457,0.334c-0.82,0.217-1.682,0.46-2.602,0.748c-0.717,0.22-1.408,0.467-1.938,0.66
		c-0.346,0.118-0.68,0.247-1.018,0.375c-1.323,0.501-2.616,1.049-3.826,1.627l-0.091,0.041c-0.085,0.037-0.169,0.074-0.245,0.115
		c-2.84,1.366-5.51,2.946-7.909,4.674l-0.495,0.352l0.029,0.051c-6.235,4.624-11.439,10.651-15.109,17.518
		c-4.311-8.071-10.653-14.893-18.417-19.778c-8.345-5.249-17.998-8.033-27.907-8.033c-10.045,0-19.798,2.845-28.212,8.226
		c-7.841,5.003-14.2,11.968-18.445,20.204c-4.188-7.787-10.332-14.369-17.842-19.084c-8.092-5.081-17.442-7.773-27.045-7.773
		c-0.341,0-35.314,0.01-35.471,0.01L163.67,2.56v0.636v2.706v8.476v78.157v4.408v6.782v0.646l0.642,0.007
		c0.154,0,35.127,0.008,35.468,0.008c9.603,0,18.953-2.69,27.045-7.768c7.51-4.725,13.653-11.304,17.842-19.087
		c4.245,8.233,10.604,15.197,18.445,20.197c8.414,5.392,18.167,8.223,28.212,8.223c8.365,0,26.877-3.237,37.151-15.526l0.392-0.464
		l-0.44-0.419l-8.326-7.973l-0.46-0.443l-0.447,0.454c-1.188,1.181-2.562,2.357-4.207,3.585l-0.259,0.2v0.064
		c-6.866,5.05-14.952,7.709-23.403,7.709c-9.612,0-18.873-3.484-26.099-9.813c-6.95-6.099-11.564-14.427-13.024-23.512h79.663
		c1.725,14.267,9.303,27.266,20.894,35.86l-0.029,0.038l0.495,0.355c2.399,1.725,5.069,3.308,7.919,4.685
		c0.064,0.03,0.135,0.064,0.219,0.102l0.107,0.048c1.232,0.581,2.507,1.133,3.826,1.627c0.338,0.128,0.672,0.25,1.018,0.375
		c0.746,0.281,1.36,0.477,1.938,0.666c0.904,0.274,1.751,0.525,2.602,0.73c0.432,0.118,0.862,0.211,1.287,0.309l0.363,0.078
		c0.644,0.142,1.304,0.284,1.969,0.392l0.404,0.078c0.323,0.064,0.658,0.128,0.996,0.172c0.998,0.159,2.063,0.291,3.239,0.396
		c0.37,0.029,0.738,0.058,1.117,0.088l0.03,0.003c1.263,0.088,2.399,0.129,3.459,0.136h0.046h0.115h0.04h0.038h0.121h0.029
		c1.07-0.007,2.209-0.048,3.476-0.136c0.385-0.033,0.768-0.062,1.151-0.091c1.166-0.105,2.23-0.237,3.23-0.396
		c0.331-0.044,0.658-0.107,0.986-0.162l0.423-0.088c0.629-0.107,1.27-0.237,1.965-0.392l0.306-0.065
		c0.443-0.094,0.894-0.203,1.331-0.321c0.858-0.205,1.705-0.456,2.611-0.743c0.564-0.169,1.191-0.372,1.945-0.653
		c0.306-0.105,0.602-0.216,0.902-0.335l0.109-0.04c1.294-0.484,2.577-1.029,3.827-1.627c0.056-0.024,0.104-0.048,0.146-0.065
		c0.062-0.029,0.125-0.061,0.188-0.091c2.85-1.37,5.524-2.953,7.91-4.678l0.525-0.376l-0.03-0.04
		c2.049-1.526,4.06-3.271,5.972-5.187l0.46-0.47l-0.48-0.453l-8.318-7.973l-0.464-0.443l-0.441,0.454
		c-1.648,1.63-3.449,3.135-5.351,4.461l-0.254,0.177c-0.184,0.125-0.369,0.254-0.561,0.379c-0.808,0.541-1.637,1.038-2.479,1.502
		c-0.086,0.054-0.182,0.107-0.272,0.158c-0.099,0.055-0.191,0.115-0.283,0.159c-2.134,1.156-4.419,2.114-6.757,2.858
		c-0.186,0.063-0.373,0.115-0.565,0.169l-0.062,0.02c-0.972,0.288-1.957,0.538-2.943,0.759c-0.286,0.051-0.567,0.114-0.844,0.172
		c-0.927,0.176-1.902,0.325-2.995,0.464c-0.104,0.007-0.227,0.017-0.324,0.037c-0.155,0.01-0.289,0.034-0.435,0.054
		c-1.354,0.125-2.598,0.19-3.796,0.19c-1.199,0-2.435-0.065-3.795-0.19c-0.144-0.02-0.301-0.044-0.446-0.054
		c-0.099-0.021-0.207-0.03-0.316-0.037c-1.087-0.139-2.07-0.288-2.992-0.464c-0.272-0.058-0.56-0.121-0.835-0.172
		c-0.998-0.221-1.984-0.471-2.943-0.759l-0.226-0.073c-0.14-0.027-0.279-0.068-0.413-0.115c-2.336-0.744-4.612-1.702-6.753-2.858
		c-0.103-0.055-0.2-0.104-0.296-0.159c-0.083-0.051-0.177-0.104-0.265-0.158c-0.88-0.491-1.713-0.998-2.478-1.502
		c-0.262-0.166-0.514-0.35-0.764-0.528l-0.045-0.027c-10.688-7.438-17.071-19.612-17.071-32.577c0-12.969,6.384-25.15,17.071-32.581
		c0.268-0.189,0.534-0.372,0.809-0.558c0.768-0.511,1.607-1.015,2.486-1.502c0.079-0.047,0.162-0.095,0.249-0.149
		c0.096-0.061,0.2-0.115,0.303-0.172c2.139-1.154,4.412-2.114,6.758-2.859c0.11-0.033,0.233-0.071,0.353-0.101l0.281-0.085
		c0.959-0.287,1.945-0.541,2.936-0.754c0.283-0.061,0.57-0.118,0.843-0.172c0.914-0.18,1.891-0.328,2.992-0.464
		c0.109-0.01,0.218-0.023,0.328-0.037c0.134-0.017,0.291-0.041,0.435-0.051c1.331-0.132,2.578-0.189,3.795-0.189
		c1.223,0,2.459,0.057,3.796,0.189c0.146,0.01,0.279,0.034,0.435,0.048c0.098,0.017,0.22,0.03,0.324,0.04
		c1.1,0.136,2.084,0.284,2.995,0.464c0.281,0.054,0.558,0.111,0.844,0.169c0.986,0.216,1.972,0.47,2.935,0.757l0.188,0.051
		c0.145,0.047,0.302,0.091,0.448,0.139c2.351,0.741,4.623,1.701,6.768,2.855c0.09,0.05,0.189,0.111,0.283,0.169
		c0.096,0.05,0.176,0.098,0.262,0.152c0.832,0.457,1.664,0.964,2.479,1.502c0.218,0.135,0.411,0.274,0.612,0.416l0.212,0.142
		c1.892,1.319,3.692,2.818,5.341,4.458l0.441,0.447l0.464-0.44l8.318-7.969l0.48-0.457l-0.46-0.467
		c-1.912-1.911-3.923-3.653-5.972-5.178l0.03-0.048l-0.525-0.379c-2.386-1.725-5.061-3.301-7.922-4.678
		c-0.052-0.027-0.115-0.061-0.177-0.084l-0.146-0.068c-1.231-0.589-2.527-1.13-3.817-1.627l-0.229-0.088
		c-0.262-0.101-0.526-0.193-0.802-0.287c-0.527-0.193-1.217-0.44-1.947-0.66c-0.913-0.288-1.766-0.531-2.6-0.748
		c-0.501-0.125-1.006-0.24-1.509-0.348l-0.128-0.03c-0.643-0.142-1.294-0.271-1.965-0.4c-0.173-0.03-0.325-0.057-0.499-0.087
		c-0.301-0.058-0.604-0.115-0.91-0.163c-0.988-0.155-2.043-0.281-3.23-0.389c-0.384-0.034-0.767-0.057-1.146-0.084
		c-1.292-0.088-2.432-0.136-3.481-0.142h-0.04C384.031,0.967,383.994,0.96,383.957,0.96 M252.201,47.104
		c1.46-9.082,6.074-17.409,13.024-23.508c7.226-6.329,16.486-9.81,26.099-9.81c9.604,0,18.879,3.481,26.093,9.81
		c6.959,6.099,11.563,14.426,13.028,23.508H252.201z M176.373,15.021c8.395-0.014,23.326-0.017,23.407-0.017
		c21.207,0,38.458,17.251,38.458,38.46c0,21.198-17.251,38.452-38.458,38.452c-0.081,0-15.012-0.01-23.407-0.022V15.021z"/>
	<path clip-path="url(#SVGID_2_)" fill="#020202" d="M412.288,82.042c-1.671,1.665-3.486,3.177-5.425,4.536
		c-0.284,0.183-0.547,0.376-0.829,0.562c-0.819,0.541-1.662,1.045-2.515,1.526c-0.198,0.107-0.38,0.223-0.57,0.328
		c-2.171,1.167-4.478,2.144-6.873,2.897c-0.213,0.065-0.421,0.129-0.641,0.193c-0.976,0.295-1.977,0.545-2.982,0.771
		c-0.291,0.062-0.572,0.112-0.858,0.173c-1.001,0.189-2.021,0.349-3.048,0.471c-0.25,0.026-0.504,0.07-0.771,0.091
		c-1.271,0.126-2.549,0.197-3.855,0.197s-2.586-0.071-3.86-0.197c-0.262-0.021-0.515-0.064-0.767-0.091
		c-1.032-0.122-2.04-0.281-3.041-0.471c-0.296-0.061-0.579-0.111-0.865-0.173c-1.003-0.226-2.005-0.476-2.98-0.771
		c-0.216-0.064-0.436-0.128-0.642-0.193c-2.391-0.754-4.69-1.73-6.87-2.897c-0.198-0.105-0.377-0.221-0.57-0.328
		c-0.86-0.481-1.702-0.985-2.521-1.526c-0.279-0.186-0.548-0.379-0.827-0.562c-10.469-7.292-17.342-19.402-17.342-33.115
		c0-13.726,6.873-25.829,17.342-33.115c0.279-0.193,0.548-0.382,0.827-0.565c0.819-0.541,1.661-1.052,2.521-1.529
		c0.193-0.104,0.372-0.219,0.57-0.328c2.18-1.174,4.479-2.144,6.87-2.905c0.206-0.061,0.426-0.122,0.642-0.186
		c0.976-0.291,1.978-0.548,2.98-0.768c0.286-0.065,0.569-0.119,0.865-0.176c1.001-0.196,2.009-0.349,3.041-0.47
		c0.252-0.024,0.505-0.068,0.767-0.088c1.274-0.125,2.554-0.193,3.86-0.193s2.584,0.068,3.855,0.193
		c0.268,0.02,0.521,0.064,0.771,0.088c1.026,0.121,2.047,0.274,3.048,0.47c0.286,0.057,0.567,0.111,0.858,0.176
		c1.006,0.22,2.007,0.477,2.982,0.768c0.22,0.064,0.428,0.125,0.641,0.186c2.396,0.761,4.702,1.731,6.873,2.905
		c0.19,0.109,0.372,0.224,0.57,0.328c0.853,0.477,1.695,0.988,2.515,1.529c0.282,0.183,0.545,0.372,0.829,0.565
		c1.938,1.35,3.754,2.868,5.425,4.529l8.328-7.962c-1.984-1.992-4.116-3.839-6.411-5.49l0.03-0.051
		c-2.452-1.765-5.079-3.294-7.822-4.62c-0.103-0.048-0.212-0.102-0.317-0.146c-1.236-0.581-2.495-1.123-3.772-1.61
		c-0.34-0.122-0.674-0.254-1.013-0.372c-0.631-0.227-1.271-0.446-1.926-0.649c-0.85-0.268-1.705-0.515-2.566-0.734
		c-0.534-0.136-1.069-0.261-1.617-0.376c-0.641-0.142-1.293-0.274-1.951-0.392c-0.456-0.085-0.92-0.179-1.38-0.247
		c-1.067-0.163-2.125-0.288-3.198-0.386c-0.375-0.034-0.757-0.061-1.137-0.088c-1.133-0.078-2.277-0.132-3.428-0.135
		c-0.041,0-0.09-0.007-0.151-0.007h-0.036h-0.041c-0.055,0-0.099,0.007-0.146,0.007c-1.159,0.003-2.297,0.057-3.423,0.135
		c-0.377,0.027-0.766,0.054-1.145,0.088c-1.076,0.098-2.139,0.223-3.186,0.386c-0.472,0.068-0.932,0.162-1.39,0.247
		c-0.656,0.118-1.309,0.25-1.954,0.392c-0.539,0.115-1.085,0.24-1.62,0.376c-0.862,0.219-1.718,0.466-2.569,0.734
		c-0.646,0.203-1.278,0.422-1.919,0.649c-0.34,0.118-0.677,0.247-1.007,0.372c-1.278,0.487-2.545,1.029-3.768,1.61
		c-0.122,0.044-0.221,0.098-0.326,0.146c-2.749,1.326-5.38,2.855-7.824,4.62l0.029,0.051c-6.721,4.857-12.218,11.294-15.985,18.753
		c-8.529-16.933-26.067-28.566-46.324-28.566c-20.517,0-38.244,11.92-46.645,29.209C236.388,14.432,219.41,3.185,199.78,3.185
		c-0.147,0-35.307,0.01-35.461,0.01v2.706v8.477v78.157v4.407v6.782c0.154,0,35.314,0.006,35.461,0.006
		c19.629,0,36.607-11.235,44.898-27.628c8.4,17.288,26.128,29.195,46.645,29.195c9.954,0,27.247-4.033,36.65-15.296l-8.323-7.96
		c-1.324,1.313-2.772,2.523-4.277,3.646v0.064c-6.718,5.029-15.021,8.034-24.05,8.034c-20.331,0-37.099-15.057-39.88-34.625h80.997
		c1.64,14.937,9.615,27.973,21.192,36.33l-0.029,0.054c2.444,1.765,5.075,3.291,7.824,4.617c0.105,0.05,0.204,0.098,0.326,0.154
		c1.223,0.582,2.489,1.117,3.768,1.601c0.33,0.126,0.667,0.251,1.007,0.376c0.641,0.22,1.273,0.438,1.919,0.642
		c0.852,0.274,1.707,0.516,2.569,0.731c0.535,0.142,1.081,0.267,1.62,0.379c0.646,0.148,1.298,0.273,1.954,0.396
		c0.458,0.084,0.918,0.18,1.39,0.25c1.047,0.162,2.109,0.281,3.186,0.376c0.379,0.04,0.768,0.064,1.145,0.099
		c1.126,0.066,2.264,0.125,3.423,0.132h0.146h0.028h0.047h0.153c1.15-0.007,2.295-0.065,3.428-0.132
		c0.38-0.034,0.762-0.059,1.137-0.099c1.073-0.095,2.131-0.214,3.198-0.376c0.46-0.07,0.924-0.166,1.38-0.25
		c0.658-0.122,1.311-0.247,1.951-0.396c0.548-0.112,1.083-0.237,1.617-0.379c0.861-0.216,1.717-0.457,2.566-0.731
		c0.655-0.203,1.295-0.422,1.926-0.642c0.339-0.125,0.673-0.25,1.013-0.376c1.277-0.483,2.536-1.019,3.772-1.601
		c0.105-0.057,0.215-0.104,0.317-0.154c2.743-1.326,5.37-2.853,7.822-4.617l-0.03-0.054c2.295-1.642,4.427-3.491,6.411-5.49
		L412.288,82.042z M199.78,92.569c-0.081,0-15.805-0.01-24.059-0.02V14.368c8.254-0.007,23.978-0.017,24.059-0.017
		c21.602,0,39.109,17.511,39.109,39.112C238.89,75.054,221.382,92.569,199.78,92.569 M251.443,47.757
		c2.781-19.568,19.549-34.624,39.88-34.624c20.333,0,37.104,15.056,39.881,34.624H251.443z"/>
	<path clip-path="url(#SVGID_2_)" fill="#FCB017" d="M64.108,139.764c0,0,61.036-4.748,61.036-110.939
		c-26.755,0-36.416,7.695-61.013,37.886C53.608,55.617,47.816,27.385,3.629,27.385C3.629,61.25,5.833,116.017,64.108,139.764"/>
	<path clip-path="url(#SVGID_2_)" fill="#F15D22" d="M64.108,139.764c0,0,61.036-4.748,61.036-110.939
		c-32.509-3.991-43.974,24.873-61.013,35.74C64.131,97.157,64.108,116.566,64.108,139.764"/>
	<path clip-path="url(#SVGID_2_)" fill="#F15D22" d="M95.767,14.923c-21.943-3.167-31.239,8.303-31.239,8.303V2.035h28.999
		C93.526,2.035,95.815,12.629,95.767,14.923"/>
	<path clip-path="url(#SVGID_2_)" fill="#FCB017" d="M33.016,15.149c21.48-3.733,31.805,8.476,31.805,8.476V2.035H35.824
		C35.824,2.035,31.268,12.287,33.016,15.149"/>
	<path clip-path="url(#SVGID_2_)" fill="#FFFFFF" d="M62.975,42.429c0,10.893-8.836,19.723-19.728,19.723
		s-19.726-8.83-19.726-19.723c0-10.893,8.834-19.724,19.726-19.724S62.975,31.536,62.975,42.429"/>
	<path clip-path="url(#SVGID_2_)" fill="#FFFFFF" d="M105.515,42.429c0,10.893-8.833,19.723-19.727,19.723
		s-19.726-8.83-19.726-19.723c0-10.893,8.832-19.724,19.726-19.724S105.515,31.536,105.515,42.429"/>
	<path clip-path="url(#SVGID_2_)" fill="#020202" d="M443.612,12.511c0,2.361-0.84,4.373-2.511,6.041
		c-1.659,1.674-3.682,2.51-6.038,2.51c-2.354,0-4.372-0.836-6.045-2.51c-1.664-1.668-2.498-3.68-2.498-6.041
		c0-2.355,0.834-4.371,2.498-6.042c1.673-1.664,3.69-2.503,6.045-2.503c2.356,0,4.379,0.839,6.038,2.503
		C442.772,8.141,443.612,10.156,443.612,12.511 M441.726,12.511c0-1.834-0.653-3.413-1.947-4.733
		c-1.305-1.315-2.872-1.978-4.715-1.978c-1.839,0-3.405,0.663-4.707,1.978c-1.305,1.32-1.945,2.899-1.945,4.733
		c0,1.84,0.641,3.419,1.945,4.732c1.302,1.322,2.868,1.979,4.707,1.979c1.843,0,3.41-0.657,4.715-1.979
		C441.072,15.93,441.726,14.352,441.726,12.511 M439.692,16.566H437.1l-2.469-3.122h-0.815v3.122h-2.008V8.06h3.104
		c0.562,0,1.026,0.02,1.376,0.068c0.354,0.047,0.689,0.162,1.041,0.355c0.377,0.223,0.659,0.484,0.83,0.792
		c0.166,0.304,0.254,0.686,0.254,1.156c0,0.633-0.171,1.144-0.506,1.539c-0.337,0.393-0.779,0.704-1.306,0.927L439.692,16.566z
		 M436.17,10.586c0-0.176-0.027-0.342-0.11-0.487c-0.076-0.152-0.196-0.267-0.363-0.362c-0.146-0.088-0.323-0.142-0.516-0.169
		c-0.191-0.027-0.431-0.037-0.727-0.037h-0.639v2.398h0.492c0.294,0,0.578-0.021,0.83-0.075c0.266-0.047,0.46-0.132,0.614-0.253
		c0.134-0.105,0.251-0.234,0.308-0.406C436.143,11.032,436.17,10.83,436.17,10.586"/>
	<path clip-path="url(#SVGID_2_)" fill="#232020" d="M85.792,32.195c-0.963,0-1.89,0.141-2.77,0.397
		c1.907,0.531,3.317,2.266,3.317,4.342c0,2.502-2.026,4.53-4.526,4.53c-2.503,0-4.529-2.028-4.529-4.53
		c0-0.004,0.004-0.007,0.004-0.009c-0.963,1.54-1.528,3.351-1.528,5.299c0,5.539,4.49,10.032,10.032,10.032
		c5.537,0,10.023-4.493,10.023-10.032C95.815,36.688,91.329,32.195,85.792,32.195"/>
	<path clip-path="url(#SVGID_2_)" fill="#232020" d="M43.583,32.195c-0.959,0-1.889,0.141-2.77,0.397
		c1.909,0.531,3.321,2.266,3.321,4.342c0,2.502-2.026,4.53-4.527,4.53c-2.504,0-4.527-2.028-4.527-4.53v-0.009
		c-0.959,1.54-1.525,3.351-1.525,5.299c0,5.539,4.489,10.032,10.028,10.032s10.025-4.493,10.025-10.032
		C53.608,36.688,49.122,32.195,43.583,32.195"/>
	<path clip-path="url(#SVGID_2_)" fill="#020202" d="M64.673,0H0.254v6.418H32.52c-0.952,4.347-2.015,9.156-3.631,15.158
		c7.969-7.799,27.473-7.573,35.784,6.166V0z M64.004,20.191c-8.152-8.732-22.902-8.944-28.192-6.543
		c0.663-2.25,1.245-4.995,1.815-7.022h26.377V20.191z"/>
	<path clip-path="url(#SVGID_2_)" fill="#020202" d="M134.022,26.917v11.473h7.475c0,0-0.033-11.473-0.013-11.473
		c0-1.769-1.239-3.245-2.891-3.628V0h-0.112h-0.064h-1.492H64.673v27.343c8.61-13.34,28.108-13.566,36.082-5.767
		c-1.617-6.002-2.681-10.811-3.631-15.158h39.801v16.869C135.267,23.667,134.022,25.146,134.022,26.917 M65.633,20.191V6.625h26.381
		c0.565,2.027,1.148,4.772,1.815,7.022C88.543,11.247,73.789,11.458,65.633,20.191"/>
	<path clip-path="url(#SVGID_2_)" fill="#020202" d="M64.41,63.809l-5.048-5.125c4.325-4.152,7.034-9.982,7.034-16.459
		c0-12.598-10.212-22.815-22.813-22.815c-5.627,0-10.769,2.046-14.751,5.425H0c0,28.916,3.113,92.491,64.388,118.41
		C64.388,135.166,64.41,63.809,64.41,63.809 M61.649,42.225c0,9.981-8.087,18.069-18.066,18.069c-9.977,0-18.07-8.088-18.07-18.069
		c0-9.979,8.093-18.067,18.07-18.067C53.562,24.158,61.649,32.246,61.649,42.225 M63.751,138.237
		c-12.443-5.809-22.352-13.519-30.195-22.497c7.017-10.723,7.22-29.677,5.983-37.397c0.104,6.54-2.729,26.354-10.385,31.921
		C12.243,87.539,6.837,58.201,6.837,30.96h16.922c-1.896,3.323-2.991,7.164-2.991,11.265c0,12.602,10.213,22.818,22.815,22.818
		c4.652,0,8.979-1.404,12.582-3.796l7.586,7.684V138.237z"/>
	<path clip-path="url(#SVGID_2_)" fill="#020202" d="M100.54,24.835c-3.98-3.379-9.125-5.425-14.752-5.425
		c-9.542,0-17.708,5.869-21.115,14.187v17.245c1.174,2.866,2.904,5.449,5.062,7.593l-5.324,5.374c0,0-0.023,70.244-0.023,79.436
		c61.268-25.919,64.382-89.494,64.382-118.41H100.54z M67.72,42.225c0-9.979,8.09-18.067,18.068-18.067
		c9.979,0,18.067,8.088,18.067,18.067c0,9.981-8.088,18.069-18.067,18.069C75.81,60.294,67.72,52.206,67.72,42.225 M89.31,78.342
		c-1.235,7.709-1.027,26.613,5.954,37.346c-7.844,9.003-17.772,16.733-30.245,22.549V69.009l7.867-7.972
		c3.671,2.524,8.114,4.006,12.902,4.006c12.602,0,22.816-10.216,22.816-22.818c0-4.101-1.096-7.942-2.991-11.265h16.319
		c0,27.226-5.401,56.548-22.284,79.27C92.029,104.611,89.209,84.868,89.31,78.342"/>
	<path clip-path="url(#SVGID_2_)" fill="#020202" d="M174.401,140.273h3.205c-1.159,2.882-3.205,4.323-6.114,4.323
		c-1.924,0-3.498-0.629-4.731-1.881c-1.226-1.251-1.847-2.841-1.847-4.759c0-1.867,0.628-3.44,1.869-4.732
		c1.25-1.299,2.799-1.945,4.659-1.945c1.424,0,2.673,0.379,3.752,1.109c1.075,0.751,1.852,1.79,2.334,3.133
		c0.313,0.842,0.47,1.979,0.47,3.423h-10.029c0.345,1.982,1.53,2.983,3.546,2.983c0.78,0,1.357-0.084,1.746-0.257
		C173.783,141.403,174.166,140.939,174.401,140.273 M174.892,136.637c-0.402-1.776-1.539-2.669-3.399-2.669
		c-1.819,0-2.96,0.893-3.447,2.669H174.892z"/>
	<path clip-path="url(#SVGID_2_)" fill="#020202" d="M210.682,144.235h-3.159v-1.381c-0.941,1.146-2.255,1.729-3.914,1.729
		c-1.832,0-3.332-0.646-4.499-1.928c-1.165-1.279-1.752-2.852-1.752-4.732c0-1.844,0.572-3.406,1.728-4.691
		c1.161-1.282,2.651-1.938,4.481-1.938c1.566,0,2.89,0.562,3.956,1.658v-7.392h3.159V144.235z M207.597,137.976
		c0-1.086-0.326-1.999-0.981-2.739c-0.66-0.728-1.519-1.1-2.584-1.1c-1.051,0-1.92,0.372-2.6,1.1
		c-0.681,0.74-1.015,1.631-1.015,2.686c0,1.038,0.334,1.938,1.003,2.682c0.668,0.759,1.531,1.138,2.564,1.138
		c1.035,0,1.893-0.372,2.58-1.12C207.254,139.902,207.597,139.008,207.597,137.976"/>
	<path clip-path="url(#SVGID_2_)" fill="#020202" d="M242.345,144.234h-3.01v-1.406c-0.746,1.163-1.815,1.755-3.213,1.755
		c-1.563,0-2.78-0.504-3.656-1.522c-0.825-0.937-1.239-2.195-1.239-3.798v-7.598h3.154v6.887c0,2.101,0.766,3.156,2.305,3.156
		c1.669,0,2.505-1.197,2.505-3.589v-6.454h3.154V144.234z"/>
	<path clip-path="url(#SVGID_2_)" fill="#020202" d="M275.285,139.702c-0.365,1.532-1.125,2.733-2.254,3.596
		c-1.129,0.872-2.497,1.299-4.097,1.299c-1.921,0-3.512-0.63-4.757-1.881c-1.243-1.252-1.869-2.842-1.869-4.759
		c0-1.972,0.614-3.562,1.837-4.797c1.216-1.241,2.802-1.867,4.764-1.867c1.647,0,3.027,0.409,4.122,1.221
		c1.151,0.853,1.889,2.074,2.237,3.66h-3.159c-0.626-1.353-1.735-2.036-3.3-2.036c-1.082,0-1.923,0.372-2.521,1.086
		c-0.604,0.71-0.896,1.631-0.896,2.733c0,1.063,0.326,1.965,0.976,2.695c0.659,0.745,1.516,1.109,2.565,1.109
		c1.617,0,2.676-0.683,3.175-2.06H275.285z"/>
	<path clip-path="url(#SVGID_2_)" fill="#020202" d="M307.953,144.235h-3.065v-1.489c-0.955,1.222-2.268,1.837-3.947,1.837
		c-1.854,0-3.371-0.646-4.547-1.928c-1.177-1.278-1.767-2.852-1.767-4.732c0-1.867,0.585-3.433,1.745-4.698
		c1.173-1.285,2.674-1.932,4.511-1.932c1.703,0,3.011,0.585,3.909,1.725v-1.353h3.161V144.235z M304.888,137.994
		c0-1.063-0.345-1.976-1.042-2.727c-0.698-0.751-1.573-1.13-2.63-1.13c-1.025,0-1.87,0.379-2.542,1.116
		c-0.659,0.744-0.987,1.637-0.987,2.669c0,1.021,0.338,1.914,1.033,2.682c0.683,0.766,1.531,1.157,2.55,1.157
		c0.991,0,1.839-0.385,2.546-1.146C304.535,139.861,304.888,138.988,304.888,137.994"/>
	<polygon clip-path="url(#SVGID_2_)" fill="#020202" points="333.795,134.137 331.99,134.137 331.99,144.234 328.836,144.234 
		328.836,134.137 327.478,134.137 327.478,131.665 328.836,131.665 328.836,127.539 331.99,127.539 331.99,131.665 333.795,131.665 
			"/>
	<path clip-path="url(#SVGID_2_)" fill="#020202" d="M356.519,144.234h-3.151v-12.569h3.151V144.234z M356.423,129.138h-2.979
		v-3.075h2.979V129.138z"/>
	<path clip-path="url(#SVGID_2_)" fill="#020202" d="M389.981,137.885c0,1.958-0.639,3.572-1.911,4.823
		c-1.268,1.234-2.893,1.874-4.866,1.874c-1.971,0-3.587-0.64-4.855-1.891c-1.275-1.262-1.908-2.854-1.908-4.807
		c0-1.921,0.649-3.498,1.957-4.739c1.292-1.255,2.9-1.867,4.807-1.867c1.938,0,3.541,0.612,4.839,1.867
		C389.335,134.387,389.981,135.964,389.981,137.885 M379.669,137.957c0,1.082,0.314,1.972,0.957,2.666
		c0.642,0.717,1.502,1.061,2.578,1.061c1.08,0,1.941-0.344,2.582-1.061c0.646-0.694,0.973-1.584,0.973-2.666
		c0-1.13-0.316-2.033-0.959-2.733c-0.622-0.707-1.493-1.059-2.596-1.059c-1.076,0-1.937,0.352-2.578,1.065
		C379.983,135.947,379.669,136.853,379.669,137.957"/>
	<path clip-path="url(#SVGID_2_)" fill="#020202" d="M421.114,144.234h-3.158v-7.021c0-1.989-0.786-3.007-2.362-3.007
		c-1.691,0-2.537,1.207-2.537,3.595v6.434h-3.152v-12.569h3.025v1.41c0.78-1.137,1.914-1.7,3.398-1.7
		c1.581,0,2.758,0.445,3.563,1.332c0.814,0.896,1.224,2.131,1.224,3.714V144.234z"/>
</g>
</svg>
