<?xml version="1.0" encoding="utf-8"?>
<!-- Generator: Adobe Illustrator 16.0.0, SVG Export Plug-In . SVG Version: 6.00 Build 0)  -->
<!DOCTYPE svg PUBLIC "-//W3C//DTD SVG 1.1//EN" "http://www.w3.org/Graphics/SVG/1.1/DTD/svg11.dtd">
<svg version="1.1" id="Layer_1" xmlns="http://www.w3.org/2000/svg" xmlns:xlink="http://www.w3.org/1999/xlink" x="0px" y="0px"
	 width="203.58px" height="97.253px" viewBox="0 0 203.58 97.253" enable-background="new 0 0 203.58 97.253" xml:space="preserve">
<g>
	<defs>
		<rect id="SVGID_1_" width="203.58" height="97.253"/>
	</defs>
	<clipPath id="SVGID_2_">
		<use xlink:href="#SVGID_1_"  overflow="visible"/>
	</clipPath>
	<path clip-path="url(#SVGID_2_)" fill="#FFFFFF" d="M57.146,43.869l0.082,0.079c1.888,1.95,2.861,4.518,2.885,7.64
		c-0.024-3.122-0.996-5.69-2.882-7.64L57.146,43.869z"/>
	<path clip-path="url(#SVGID_2_)" fill="#FFFFFF" d="M39.331,70.629c0.977-0.005,1.943-0.144,2.886-0.385
		C41.271,70.485,40.308,70.624,39.331,70.629"/>
	<path clip-path="url(#SVGID_2_)" fill="#FFFFFF" d="M46.285,68.17c6.439,0,12.026-9.099,11.355-16.468
		c0-2.675-0.824-4.629-2.186-6.025c-0.963-0.819-2.05-1.584-3.12-2.004c-0.002,0-0.003-0.005-0.007-0.005
		c-0.064-0.015-2.265-0.749-4.941-0.749c-1.465,0-3.068,0.224-4.55,0.898v23.845c0.942,0.316,1.938,0.499,2.97,0.499
		C45.967,68.163,46.127,68.17,46.285,68.17 M49.353,49.89c3.017,1.396,5.762,5.029,2.68,9.937
		C48.041,57.968,46.485,53.611,49.353,49.89"/>
	<path clip-path="url(#SVGID_2_)" fill="#FFFFFF" d="M53.347,41.413c1.166,0.478,2.414,1.279,3.711,2.377l0.088,0.079L57.06,43.79
		C55.765,42.692,54.513,41.891,53.347,41.413"/>
	<path clip-path="url(#SVGID_2_)" fill="#FFFFFF" d="M60.113,51.588c0.422,5.052-1.609,10.837-5.199,14.771
		C58.504,62.425,60.539,56.64,60.113,51.588"/>
	<path clip-path="url(#SVGID_2_)" fill="#FFFFFF" d="M54.914,66.359c-2.525,2.767-5.588,4.286-8.627,4.286
		C49.326,70.646,52.391,69.126,54.914,66.359"/>
	<polygon clip-path="url(#SVGID_2_)" fill="#FFFFFF" points="53.179,41.348 53.24,41.37 53.346,41.413 53.243,41.37 	"/>
	<path clip-path="url(#SVGID_2_)" fill="#FFFFFF" d="M32.723,43.668c0,0-0.003,0.005-0.006,0.005
		c-1.073,0.42-2.155,1.184-3.122,2.004c-1.357,1.395-2.182,3.35-2.182,6.026C26.74,59.071,32.324,68.17,38.765,68.17
		c0.161,0,0.32-0.006,0.479-0.01c1.035,0,2.03-0.184,2.972-0.498V43.816c-1.482-0.674-3.088-0.897-4.554-0.897
		C34.986,42.919,32.788,43.652,32.723,43.668 M33.6,59.826c-3.081-4.907-0.335-8.541,2.679-9.938
		C39.146,53.611,37.591,57.968,33.6,59.826"/>
	<path clip-path="url(#SVGID_2_)" fill="#FFFFFF" d="M47.39,40.446c2.633,0,4.834,0.601,5.523,0.815
		C52.224,41.047,50.023,40.446,47.39,40.446"/>
	<path clip-path="url(#SVGID_2_)" fill="#000303" d="M182.242,40.51c4.021,0,7.648,1.668,10.239,4.332l3.319-3.321
		c-3.413-3.447-8.161-5.583-13.416-5.583c-7.223,0-13.486,3.986-16.648,9.917c-1.541-2.881-3.805-5.314-6.578-7.06
		c-2.98-1.873-6.428-2.869-9.966-2.869c-3.589,0-7.069,1.021-10.075,2.936c-2.803,1.788-5.072,4.281-6.586,7.22
		c-1.496-2.78-3.691-5.133-6.374-6.819c-2.888-1.814-6.231-2.777-9.659-2.777c-0.121,0-12.896,0.012-12.896,0.012v36.359
		c0,0,12.775,0.009,12.896,0.009c3.428,0,6.771-0.962,9.659-2.774c2.683-1.686,4.878-4.039,6.374-6.817
		c1.514,2.937,3.783,5.428,6.586,7.21c3.006,1.935,6.486,2.941,10.075,2.941c2.989,0,9.599-1.155,13.268-5.547l0.136-0.166
		l-3.291-3.152c0,0-0.729,0.763-1.752,1.537c-2.42,1.821-5.344,2.747-8.36,2.747c-3.432,0-6.743-1.244-9.322-3.499
		c-2.483-2.182-4.129-5.154-4.65-8.4h28.45l0.007-0.031c1.108,9.295,9.064,16.508,18.708,16.508c5.217,0,9.941-2.104,13.354-5.515
		l-3.321-3.322c-2.586,2.628-6.191,4.26-10.176,4.26c-7.873,0-14.251-6.341-14.251-14.172
		C167.991,46.852,174.369,40.51,182.242,40.51 M116.498,68.414c-0.028,0-5.361-0.008-8.358-0.008V40.949
		c2.997-0.004,8.33-0.004,8.358-0.004c7.575,0,13.733,6.16,13.733,13.728C130.231,62.252,124.073,68.414,116.498,68.414
		 M135.22,52.404c0.521-3.248,2.167-6.213,4.65-8.39c2.579-2.263,5.891-3.504,9.322-3.504c3.426,0,6.743,1.241,9.315,3.504
		c2.488,2.177,4.131,5.142,4.653,8.39H135.22z"/>
	<path clip-path="url(#SVGID_2_)" fill="#000303" d="M202.686,37.894c-0.598-0.588-1.316-0.894-2.156-0.894
		c-0.844,0-1.563,0.306-2.164,0.894c-0.596,0.599-0.891,1.323-0.891,2.161c0,0.843,0.295,1.559,0.891,2.154
		c0.601,0.598,1.32,0.895,2.164,0.895c0.84,0,1.559-0.297,2.156-0.895c0.597-0.595,0.895-1.311,0.895-2.154
		C203.58,39.217,203.282,38.493,202.686,37.894 M202.211,41.743c-0.47,0.466-1.027,0.707-1.682,0.707
		c-0.658,0-1.219-0.241-1.682-0.707c-0.469-0.467-0.695-1.031-0.695-1.688c0-0.66,0.227-1.224,0.695-1.691
		c0.463-0.47,1.023-0.707,1.682-0.707c0.654,0,1.212,0.237,1.682,0.707c0.461,0.467,0.697,1.031,0.697,1.691
		C202.908,40.712,202.672,41.276,202.211,41.743"/>
	<path clip-path="url(#SVGID_2_)" fill="#000303" d="M201.544,39.859c0.118-0.136,0.179-0.327,0.179-0.545
		c0-0.175-0.033-0.306-0.092-0.413c-0.061-0.118-0.161-0.208-0.291-0.292c-0.127-0.06-0.25-0.105-0.377-0.121
		c-0.123-0.017-0.291-0.023-0.492-0.023h-1.105v3.041h0.716v-1.119h0.29l0.881,1.119h0.926l-1.102-1.317
		C201.265,40.111,201.424,40.002,201.544,39.859 M200.883,39.583c-0.018,0.062-0.063,0.106-0.109,0.142
		c-0.055,0.046-0.127,0.076-0.221,0.093c-0.088,0.021-0.19,0.028-0.296,0.028h-0.176v-0.859h0.226c0.108,0,0.19,0.003,0.262,0.021
		c0.068,0.002,0.131,0.021,0.185,0.057c0.062,0.032,0.103,0.074,0.13,0.13c0.028,0.049,0.036,0.108,0.036,0.169
		C200.919,39.454,200.911,39.524,200.883,39.583"/>
	<path clip-path="url(#SVGID_2_)" fill="#000303" d="M128.639,89.996l-0.115,0.134c-0.641,0.806-1.346,1.157-2.278,1.157
		c-1.522,0-2.343-1.238-2.343-2.408c0-1.354,1.061-2.403,2.411-2.403c0.84,0,1.528,0.354,2.163,1.128l0.145,0.135h0.56v-2.281
		l-0.163-0.109c-0.777-0.527-1.722-0.814-2.654-0.814c-2.579,0-4.6,1.909-4.6,4.346c0,2.486,1.971,4.354,4.584,4.354
		c0.967,0,1.828-0.264,2.709-0.828l0.178-0.108V90.37l-0.037-0.374H128.639z"/>
	<path clip-path="url(#SVGID_2_)" fill="#000303" d="M142.316,85.33c-0.674-0.516-1.498-0.797-2.365-0.797
		c-2.422,0-4.18,1.839-4.18,4.365c0,2.473,1.79,4.334,4.164,4.334c0.905,0,1.715-0.268,2.381-0.771v0.559h2.103v-8.277h-2.103V85.33
		z M140.119,91.287c-1.52,0-2.209-1.289-2.209-2.486c0-1.125,0.767-2.325,2.193-2.325c1.574,0,2.278,1.177,2.278,2.343
		C142.382,89.957,141.789,91.287,140.119,91.287"/>
	<path clip-path="url(#SVGID_2_)" fill="#000303" d="M160.249,84.533c-0.958,0-1.806,0.354-2.361,0.973
		c-0.528-0.612-1.326-0.973-2.193-0.973c-0.574,0-1.109,0.176-1.558,0.5v-0.291h-2.102v8.277h2.102v-4.269
		c0-1.595,0.41-2.276,1.368-2.276c0.516,0,1.036,0.227,1.036,1.895v4.65h2.104V88.66c0-1.553,0.388-2.186,1.338-2.186
		c0.899,0,1.063,0.604,1.063,1.801v4.744h2.104v-4.957C163.15,85.785,162.12,84.533,160.249,84.533"/>
	<path clip-path="url(#SVGID_2_)" fill="#000303" d="M175.253,84.533c-0.905,0-1.724,0.277-2.38,0.785v-0.576h-2.103v12.511h2.103
		v-4.798c0.652,0.504,1.475,0.777,2.361,0.777c2.422,0,4.183-1.822,4.183-4.334C179.417,86.779,177.957,84.533,175.253,84.533
		 M175.016,91.287c-1.518,0-2.208-1.289-2.208-2.486c0-1.125,0.767-2.325,2.191-2.325c1.569,0,2.278,1.177,2.278,2.343
		C177.277,89.957,176.689,91.287,175.016,91.287"/>
	<path clip-path="url(#SVGID_2_)" fill="#000303" d="M33.6,59.826c3.991-1.858,5.546-6.215,2.679-9.938
		C33.265,51.285,30.519,54.919,33.6,59.826"/>
	<path clip-path="url(#SVGID_2_)" fill="#000303" d="M52.033,59.826c3.082-4.907,0.337-8.541-2.68-9.938
		C46.485,53.611,48.041,57.968,52.033,59.826"/>
	<path clip-path="url(#SVGID_2_)" fill="#000303" d="M15.39,85.605c4.662,4.234,10.619,7.358,17.03,7.413
		c1.103,0.007,10.106-0.31,10.106-1.558c0,1.248,8.999,1.564,10.106,1.558c6.41-0.055,12.372-3.179,17.03-7.413
		c9.666-8.771,15.475-22.658,15.387-35.666c-0.043-6.429-0.756-12.928-4.69-18.255c-2.738-3.699-7.296-6.979-11.712-8.294
		c-5.999-1.783-12.565-2.459-18.766-1.509c-0.881,0.14-3.693,0.523-5.575,1.216c-0.09-1.325-0.093-4.365,0.097-5.259
		c0.606-2.893,3.687-5.821,7.735-8.456l-1.886-2.505c-3.633,2.367-6.198,4.953-7.672,7.722C40.08,4.832,32.982,0.827,24.399,0
		c-0.388,10.069,6.607,18.611,16.754,19.764c-0.054,1.106-0.062,2.444-0.039,3.481c-1.861-0.784-5.001-1.222-5.944-1.364
		c-6.202-0.95-12.764-0.274-18.763,1.509c-4.418,1.315-8.975,4.595-11.714,8.294C0.757,37.011,0.045,43.51,0.001,49.939
		C-0.086,62.947,5.726,76.834,15.39,85.605 M42.216,67.662c-0.942,0.314-1.937,0.498-2.972,0.498
		c-0.158,0.004-0.318,0.01-0.479,0.01c-6.441,0-12.025-9.099-11.351-16.467c0-2.676,0.824-4.631,2.181-6.026
		c0.967-0.82,2.049-1.584,3.122-2.004c0.003,0,0.006-0.005,0.006-0.005c0.066-0.016,2.263-0.749,4.939-0.749
		c1.467,0,3.072,0.223,4.554,0.897V67.662z M55.195,25.822c4.29-0.101,8.627,0.601,12.653,1.902
		c4.476,1.77,8.659,5.079,10.715,9.477c1.885,4.029,2.108,8.624,2.116,13.003c0.019,11.83-6.197,26.716-16.293,34.012
		c-4.587,3.32-9.978,5.07-15.948,4.254c-0.468-0.188-1.423-0.671-2.618-1.87c-1.551-1.551-1.926-4.888-2.983-5.586V70.25
		c0.946,0.236,1.907,0.374,2.886,0.379c0.187,0.009,0.373,0.017,0.564,0.017c3.039,0,6.101-1.52,8.627-4.286
		c3.59-3.935,5.621-9.721,5.199-14.771c-0.023-3.122-0.997-5.69-2.885-7.64l-0.082-0.079l-0.088-0.079
		c-1.297-1.098-2.545-1.9-3.711-2.377h-0.001L53.24,41.37l-0.061-0.023l-0.064-0.022c-0.035-0.011-0.102-0.032-0.201-0.063
		c-0.69-0.215-2.891-0.816-5.524-0.816c-1.66,0-3.177,0.247-4.553,0.718V28.742C46.668,26.834,50.907,25.929,55.195,25.822
		 M42.837,43.816c1.481-0.674,3.085-0.897,4.549-0.897c2.676,0,4.877,0.733,4.941,0.749c0.004,0,0.007,0.005,0.008,0.005
		c1.069,0.42,2.156,1.184,3.119,2.004c1.362,1.395,2.186,3.35,2.186,6.026c0.671,7.368-4.916,16.467-11.355,16.467
		c-0.157,0-0.318-0.006-0.479-0.01c-1.032,0-2.028-0.184-2.969-0.498V43.816z M6.486,37.201c2.062-4.398,6.242-7.707,10.718-9.477
		c8.053-2.606,17.35-2.802,25.012,1.018v12.422c-1.373-0.471-2.896-0.718-4.554-0.718c-0.758,0-1.475,0.047-2.133,0.126
		c-1.973,0.226-3.393,0.688-3.593,0.753l-0.161,0.057l-0.062,0.031c-1.163,0.466-2.418,1.27-3.721,2.377l-0.085,0.079l-0.083,0.079
		c-1.891,1.944-2.863,4.518-2.886,7.64c-0.105,1.263-0.058,2.572,0.129,3.886c0.561,3.944,2.38,7.935,5.073,10.886
		c2.526,2.767,5.59,4.286,8.625,4.286c0.187,0,0.375-0.008,0.566-0.017c0.976-0.005,1.94-0.143,2.885-0.385v10.742
		c-1.084,0.637-1.455,4.045-3.023,5.613c-1.205,1.21-2.174,1.697-2.635,1.875C17.486,91.04,4.343,67.393,4.375,50.204
		C4.382,45.825,4.601,41.23,6.486,37.201"/>
	<path clip-path="url(#SVGID_2_)" fill="#F1667C" d="M36.558,88.476c0.461-0.179,1.43-0.665,2.635-1.875
		c1.568-1.569,1.939-4.979,3.023-5.614V70.244c-0.942,0.242-1.909,0.379-2.886,0.385c-0.19,0.009-0.378,0.017-0.565,0.017
		c-3.035,0-6.1-1.521-8.625-4.286c-2.693-2.951-4.513-6.942-5.073-10.885c-0.188-1.314-0.235-2.623-0.129-3.887
		c0.022-3.123,0.995-5.695,2.886-7.64l0.083-0.079l0.085-0.08c1.302-1.106,2.558-1.911,3.72-2.377l0.063-0.031l0.161-0.056
		c0.2-0.066,1.62-0.528,3.593-0.753c0.658-0.079,1.375-0.126,2.133-0.126c1.658,0,3.181,0.247,4.554,0.717V28.742
		c-7.662-3.821-16.959-3.624-25.012-1.018c-4.476,1.77-8.657,5.078-10.718,9.477c-1.885,4.029-2.104,8.624-2.112,13.002
		C4.343,67.394,17.486,91.039,36.558,88.476"/>
	<path clip-path="url(#SVGID_2_)" fill="#CE0757" d="M42.836,41.164c1.376-0.471,2.894-0.718,4.554-0.718
		c2.633,0,4.834,0.601,5.523,0.816c0.1,0.031,0.166,0.052,0.201,0.063l0.065,0.023l0.063,0.022l0.104,0.043h0.001
		c1.166,0.478,2.418,1.279,3.713,2.377l0.086,0.079l0.085,0.079c1.885,1.95,2.858,4.518,2.881,7.64
		c0.426,5.052-1.609,10.837-5.199,14.771c-2.523,2.767-5.588,4.285-8.627,4.285c-0.19,0-0.377-0.007-0.563-0.016
		c-0.98-0.005-1.941-0.143-2.887-0.379v10.764c1.058,0.698,1.433,4.035,2.983,5.587c1.196,1.198,2.151,1.682,2.619,1.869
		c5.969,0.816,11.36-0.934,15.948-4.254c10.095-7.296,16.311-22.182,16.293-34.012c-0.009-4.379-0.232-8.974-2.116-13.003
		c-2.057-4.398-6.24-7.707-10.715-9.476c-4.027-1.302-8.364-2.004-12.654-1.903c-4.288,0.107-8.529,1.012-12.358,2.92V41.164z"/>
</g>
</svg>
