<?xml version="1.0" encoding="utf-8"?>
<!-- Generator: Adobe Illustrator 16.0.0, SVG Export Plug-In . SVG Version: 6.00 Build 0)  -->
<!DOCTYPE svg PUBLIC "-//W3C//DTD SVG 1.1//EN" "http://www.w3.org/Graphics/SVG/1.1/DTD/svg11.dtd">
<svg version="1.1" id="Layer_1" xmlns="http://www.w3.org/2000/svg" xmlns:xlink="http://www.w3.org/1999/xlink" x="0px" y="0px"
	 width="288.031px" height="145.198px" viewBox="0 0 288.031 145.198" enable-background="new 0 0 288.031 145.198"
	 xml:space="preserve">
<g>
	<defs>
		<rect id="SVGID_1_" width="392.113" height="276.198"/>
	</defs>
	<clipPath id="SVGID_2_">
		<use xlink:href="#SVGID_1_"  overflow="visible"/>
	</clipPath>
	<g clip-path="url(#SVGID_2_)">
		<defs>
			<rect id="SVGID_3_" width="392.113" height="276.198"/>
		</defs>
		<clipPath id="SVGID_4_">
			<use xlink:href="#SVGID_3_"  overflow="visible"/>
		</clipPath>
		<path clip-path="url(#SVGID_4_)" fill="#020202" d="M215.703,132.839c-0.748-0.725-1.674-1.079-2.793-1.079
			c-1.102,0-2.029,0.354-2.775,1.079c-0.755,0.716-1.13,1.627-1.13,2.735c0,1.127,0.364,2.048,1.101,2.776
			c0.732,0.724,1.666,1.091,2.805,1.091s2.078-0.367,2.809-1.082c0.736-0.722,1.104-1.652,1.104-2.785
			C216.822,134.466,216.449,133.555,215.703,132.839 M214.4,137.155c-0.369,0.414-0.867,0.613-1.49,0.613
			c-0.621,0-1.119-0.199-1.488-0.613c-0.371-0.4-0.553-0.914-0.553-1.54c0-0.636,0.182-1.159,0.553-1.573
			c0.369-0.413,0.867-0.616,1.488-0.616c0.637,0,1.139,0.203,1.498,0.612c0.371,0.403,0.555,0.926,0.555,1.577
			C214.963,136.241,214.773,136.755,214.4,137.155"/>
		<path clip-path="url(#SVGID_4_)" fill="#020202" d="M234.646,132.839c-0.748-0.725-1.674-1.079-2.793-1.079
			c-1.102,0-2.029,0.354-2.775,1.079c-0.755,0.716-1.13,1.627-1.13,2.735c0,1.127,0.364,2.048,1.101,2.776
			c0.732,0.724,1.666,1.091,2.805,1.091s2.078-0.367,2.809-1.082c0.736-0.722,1.104-1.652,1.104-2.785
			C235.766,134.466,235.393,133.555,234.646,132.839 M233.344,137.155c-0.369,0.414-0.867,0.613-1.49,0.613
			c-0.621,0-1.118-0.199-1.488-0.613c-0.371-0.4-0.553-0.914-0.553-1.54c0-0.636,0.182-1.159,0.553-1.573
			c0.37-0.413,0.867-0.616,1.488-0.616c0.637,0,1.139,0.203,1.498,0.612c0.371,0.403,0.555,0.926,0.555,1.577
			C233.906,136.241,233.717,136.755,233.344,137.155"/>
		<path clip-path="url(#SVGID_4_)" fill="#020202" d="M180.347,136.615c-0.211,0.885-0.648,1.578-1.301,2.076
			c-0.652,0.505-1.441,0.75-2.365,0.75c-1.109,0-2.027-0.362-2.748-1.086c-0.717-0.722-1.078-1.64-1.078-2.749
			c0-1.137,0.355-2.055,1.06-2.768c0.702-0.717,1.618-1.078,2.75-1.078c0.952,0,1.748,0.236,2.381,0.705
			c0.664,0.491,1.09,1.196,1.291,2.113h-1.824c-0.361-0.782-1.002-1.176-1.904-1.176c-0.625,0-1.112,0.215-1.455,0.627
			c-0.35,0.409-0.518,0.941-0.518,1.577c0,0.614,0.188,1.136,0.563,1.558c0.38,0.429,0.875,0.64,1.482,0.64
			c0.934,0,1.545-0.394,1.832-1.189H180.347z"/>
		<path clip-path="url(#SVGID_4_)" fill="#020202" d="M162.124,135.852c0.151,0.186,0.27,0.39,0.355,0.609
			c0.087,0.219,0.125,0.451,0.114,0.693c-0.01,0.308-0.091,0.593-0.243,0.854c-0.15,0.261-0.349,0.49-0.597,0.686
			c-0.248,0.196-0.54,0.347-0.874,0.455c-0.335,0.106-0.685,0.155-1.052,0.146c-0.518-0.019-0.983-0.135-1.398-0.35
			c-0.416-0.214-0.731-0.499-0.947-0.854l1.392-0.84c0.053,0.168,0.172,0.31,0.355,0.427c0.183,0.116,0.399,0.175,0.647,0.175
			c0.28,0.01,0.525-0.059,0.736-0.203c0.211-0.145,0.316-0.324,0.316-0.539c0-0.065-0.006-0.112-0.017-0.14v-0.028
			c-0.011-0.019-0.016-0.035-0.016-0.049c0-0.014-0.005-0.03-0.016-0.049c-0.075-0.159-0.216-0.289-0.421-0.392
			c-0.031-0.019-0.08-0.038-0.146-0.056l0.017-0.014c-0.151-0.075-0.318-0.147-0.502-0.217c-0.183-0.07-0.369-0.144-0.558-0.224
			c-0.188-0.079-0.374-0.163-0.557-0.252c-0.184-0.089-0.357-0.194-0.518-0.315v-0.014l-0.049-0.042
			c-0.226-0.187-0.404-0.404-0.534-0.651c-0.129-0.247-0.188-0.511-0.178-0.791c0.011-0.28,0.087-0.542,0.227-0.784
			c0.14-0.243,0.325-0.453,0.558-0.63c0.232-0.177,0.504-0.317,0.816-0.42c0.313-0.102,0.649-0.149,1.004-0.14
			c0.463,0.019,0.881,0.117,1.254,0.294c0.371,0.177,0.665,0.416,0.881,0.714l-1.36,0.812c-0.063-0.102-0.169-0.191-0.314-0.266
			c-0.146-0.075-0.311-0.112-0.493-0.112c-0.249-0.01-0.462,0.042-0.64,0.154c-0.178,0.112-0.266,0.247-0.266,0.406
			c0,0.047,0.004,0.08,0.016,0.098c0.022,0.103,0.074,0.192,0.161,0.266c0.087,0.075,0.195,0.136,0.323,0.182
			c0.206,0.103,0.44,0.208,0.705,0.315c0.264,0.107,0.53,0.227,0.8,0.357c0.195,0.075,0.388,0.182,0.582,0.322l0.082,0.07
			C161.876,135.6,161.995,135.712,162.124,135.852"/>
		<path clip-path="url(#SVGID_4_)" fill="#020202" d="M159.911,139.397l-0.086-0.002c-0.533-0.019-1.017-0.141-1.443-0.361
			c-0.429-0.221-0.76-0.52-0.985-0.89l-0.052-0.086l1.586-0.957l0.038,0.121c0.047,0.145,0.149,0.267,0.313,0.373
			c0.167,0.105,0.367,0.159,0.594,0.159l0.053,0.001c0.236,0,0.447-0.064,0.627-0.187c0.183-0.126,0.271-0.275,0.271-0.457
			c0-0.074-0.008-0.099-0.01-0.104l-0.005-0.04c-0.011-0.025-0.016-0.049-0.016-0.072c-0.073-0.145-0.196-0.258-0.383-0.353
			c-0.021-0.012-0.057-0.028-0.128-0.049l-0.182-0.052l0.041-0.035c-0.11-0.05-0.228-0.098-0.352-0.145
			c-0.185-0.071-0.372-0.146-0.562-0.227c-0.185-0.077-0.375-0.163-0.562-0.254c-0.19-0.092-0.37-0.201-0.534-0.324l-0.04-0.03
			v-0.019l-0.015-0.012c-0.232-0.193-0.421-0.421-0.557-0.679c-0.136-0.264-0.201-0.547-0.189-0.842
			c0.012-0.295,0.093-0.575,0.24-0.83c0.146-0.253,0.342-0.476,0.584-0.659c0.239-0.184,0.524-0.33,0.846-0.436
			c0.297-0.097,0.617-0.146,0.951-0.146l0.086,0.001c0.479,0.019,0.912,0.122,1.295,0.303c0.385,0.184,0.693,0.435,0.92,0.746
			l0.063,0.087l-1.537,0.919l-0.052-0.083c-0.054-0.086-0.146-0.163-0.275-0.229c-0.131-0.068-0.281-0.102-0.448-0.102l-0.059-0.001
			c-0.202,0-0.38,0.047-0.527,0.141c-0.149,0.093-0.22,0.197-0.22,0.32c0,0.038,0.004,0.051,0.004,0.051l0.01,0.027
			c0.017,0.082,0.059,0.151,0.129,0.21c0.076,0.068,0.175,0.122,0.291,0.163c0.213,0.107,0.44,0.209,0.709,0.318
			c0.262,0.107,0.534,0.228,0.806,0.36c0.193,0.073,0.397,0.186,0.597,0.33l0.088,0.076c0.106,0.082,0.23,0.2,0.364,0.343
			c0.161,0.199,0.285,0.413,0.375,0.642c0.091,0.23,0.131,0.476,0.12,0.733c-0.01,0.321-0.096,0.624-0.255,0.9
			c-0.159,0.272-0.369,0.513-0.624,0.714c-0.254,0.202-0.559,0.361-0.905,0.471C160.593,139.347,160.257,139.397,159.911,139.397
			 M157.622,138.125c0.203,0.3,0.489,0.546,0.852,0.732c0.399,0.207,0.856,0.321,1.357,0.34l0.08,0.001
			c0.325,0,0.641-0.048,0.938-0.143c0.322-0.105,0.605-0.252,0.841-0.439c0.236-0.185,0.429-0.406,0.575-0.657
			c0.142-0.247,0.218-0.518,0.228-0.808c0.01-0.229-0.025-0.448-0.105-0.652c-0.082-0.209-0.198-0.405-0.341-0.584
			c-0.122-0.131-0.238-0.24-0.34-0.319l-0.085-0.075c-0.18-0.128-0.367-0.232-0.553-0.302c-0.275-0.134-0.543-0.253-0.802-0.359
			c-0.273-0.111-0.506-0.214-0.711-0.319c-0.129-0.045-0.248-0.112-0.344-0.195c-0.099-0.084-0.162-0.188-0.191-0.307
			c-0.014-0.033-0.022-0.075-0.022-0.133c0-0.194,0.106-0.359,0.314-0.49c0.18-0.113,0.393-0.171,0.634-0.171l0.063,0.002h0.001
			c0.194,0,0.375,0.041,0.534,0.123c0.124,0.064,0.223,0.138,0.296,0.223l1.184-0.709c-0.198-0.243-0.46-0.443-0.776-0.596
			c-0.357-0.169-0.767-0.265-1.215-0.284l-0.08-0.001c-0.312,0-0.611,0.046-0.889,0.137c-0.3,0.099-0.566,0.235-0.787,0.404
			c-0.22,0.169-0.399,0.37-0.531,0.601c-0.132,0.227-0.203,0.475-0.213,0.738c-0.012,0.26,0.045,0.509,0.166,0.741
			c0.123,0.233,0.294,0.442,0.508,0.619l0.086,0.083c0.143,0.104,0.298,0.197,0.461,0.276c0.182,0.087,0.366,0.171,0.553,0.25
			c0.188,0.079,0.373,0.153,0.555,0.222c0.185,0.071,0.357,0.145,0.511,0.221l0.138,0.069l-0.004,0.003l0.001,0.001
			c0.219,0.111,0.376,0.258,0.461,0.436c0.015,0.027,0.025,0.06,0.025,0.092l0.016,0.061c0.011,0.039,0.017,0.09,0.017,0.155
			c0,0.249-0.121,0.458-0.359,0.621c-0.215,0.148-0.463,0.222-0.74,0.222l-0.057-0.001c-0.262,0-0.498-0.063-0.697-0.19
			c-0.16-0.102-0.278-0.225-0.35-0.366L157.622,138.125z"/>
		<path clip-path="url(#SVGID_4_)" fill="#020202" d="M196.47,132.153c0.439,0.29,0.789,0.67,1.051,1.142
			c0.262,0.47,0.393,0.986,0.393,1.546v4.201h-1.443v-1.513v-2.688c0-0.243-0.047-0.471-0.139-0.686
			c-0.093-0.214-0.222-0.403-0.386-0.566c-0.162-0.164-0.352-0.292-0.567-0.385c-0.215-0.094-0.443-0.141-0.685-0.141
			c-0.243,0-0.475,0.047-0.694,0.141c-0.218,0.093-0.408,0.221-0.566,0.385c-0.159,0.163-0.285,0.352-0.379,0.566
			c-0.093,0.215-0.14,0.443-0.14,0.686v2.688v1.513h-1.442v-4.201v-8.19h1.442v5.502c0.252-0.168,0.531-0.298,0.833-0.392
			c0.303-0.092,0.619-0.139,0.946-0.139c0.326,0,0.64,0.047,0.945,0.139C195.941,131.855,196.218,131.985,196.47,132.153"/>
		<path clip-path="url(#SVGID_4_)" fill="#020202" d="M198.013,139.141h-1.643v-4.3c0-0.227-0.044-0.445-0.131-0.646
			c-0.089-0.202-0.211-0.382-0.365-0.536c-0.155-0.154-0.335-0.276-0.535-0.363c-0.404-0.176-0.89-0.176-1.3,0
			c-0.206,0.087-0.386,0.209-0.535,0.362c-0.15,0.153-0.27,0.334-0.359,0.537c-0.087,0.201-0.131,0.419-0.131,0.646v4.3h-1.642
			v-12.59h1.642v5.421c0.216-0.126,0.452-0.228,0.703-0.306c0.625-0.192,1.323-0.192,1.95,0c0.313,0.097,0.602,0.233,0.859,0.404
			c0.451,0.298,0.815,0.694,1.081,1.176c0.27,0.483,0.405,1.02,0.405,1.595V139.141z M196.57,138.942h1.242v-4.102
			c0-0.541-0.128-1.044-0.38-1.498c-0.251-0.454-0.593-0.826-1.018-1.107c-0.239-0.16-0.512-0.288-0.808-0.379
			c-0.587-0.18-1.245-0.18-1.831,0c-0.295,0.091-0.566,0.219-0.807,0.379l-0.156,0.104v-5.589h-1.241v12.191h1.241v-4.102
			c0-0.254,0.051-0.499,0.149-0.726c0.098-0.225,0.232-0.426,0.398-0.596c0.168-0.173,0.369-0.31,0.6-0.407
			c0.461-0.197,1.006-0.197,1.459,0c0.222,0.097,0.423,0.233,0.596,0.406c0.171,0.171,0.308,0.372,0.408,0.597
			c0.097,0.227,0.146,0.472,0.146,0.726V138.942z"/>
		<rect x="246.891" y="126.951" clip-path="url(#SVGID_4_)" fill="#020202" width="1.768" height="12.222"/>
		<path clip-path="url(#SVGID_4_)" fill="#020202" d="M253.441,116.865c-0.641-0.005-1.291-0.032-2.012-0.082
			c-0.238-0.019-0.461-0.028-0.67-0.056c-0.673-0.057-1.281-0.13-1.854-0.215c-0.194-0.028-0.383-0.065-0.574-0.102l-0.232-0.045
			c-0.381-0.064-0.759-0.146-1.133-0.227l-0.202-0.046c-0.247-0.055-0.493-0.108-0.739-0.177c-0.486-0.118-0.974-0.259-1.487-0.423
			c-0.336-0.104-0.688-0.226-1.119-0.376c-0.193-0.073-0.394-0.146-0.581-0.218c-0.757-0.285-1.492-0.594-2.198-0.925l-0.067-0.037
			c-0.04-0.02-0.084-0.037-0.124-0.065c-1.634-0.781-3.161-1.686-4.539-2.675l-0.143-0.106l0.016-0.023
			c-6.772-4.962-11.191-12.538-12.151-20.844h-46.384c1.696,11.203,11.469,19.619,22.811,19.619c4.949,0,9.683-1.574,13.699-4.543
			v-0.043l0.075-0.056c0.957-0.715,1.759-1.401,2.447-2.086l0.133-0.129l5.063,4.844l-0.111,0.135
			c-5.883,7.042-16.51,8.901-21.306,8.901c-11.507,0-21.793-6.362-26.942-16.631c-5.058,9.71-14.955,15.725-25.918,15.725
			c-0.197,0-20.383-0.008-20.479-0.008l-0.183-0.004V57.533l0.183-0.003c0.089,0,20.282-0.006,20.479-0.006
			c10.963,0,20.86,6.016,25.918,15.726c5.149-10.27,15.435-16.634,26.942-16.634c11.325,0,21.534,6.228,26.747,16.274
			c2.143-4.124,5.242-7.734,8.978-10.47l0.127-0.13c1.378-0.991,2.905-1.897,4.543-2.684c0.04-0.022,0.089-0.041,0.128-0.063
			l0.063-0.023c0.694-0.332,1.43-0.649,2.194-0.936c0.188-0.073,0.388-0.146,0.581-0.217c0.368-0.13,0.74-0.26,1.119-0.375
			c0.522-0.167,1.013-0.306,1.487-0.429c0.275-0.069,0.555-0.133,0.836-0.194l0.105-0.025c0.374-0.082,0.752-0.157,1.133-0.227
			l0.275-0.051c0.176-0.035,0.354-0.065,0.531-0.094c0.563-0.086,1.174-0.158,1.858-0.222c0.204-0.017,0.421-0.034,0.63-0.05
			c0.76-0.05,1.408-0.079,2.02-0.081l0.13-0.003l0.056,0.003c0.631,0.002,1.29,0.031,2.021,0.078
			c0.22,0.017,0.443,0.032,0.664,0.053c0.681,0.064,1.287,0.136,1.851,0.222c0.177,0.029,0.353,0.059,0.53,0.094l0.279,0.051
			c0.381,0.07,0.756,0.145,1.127,0.227l0.08,0.02c0.291,0.062,0.578,0.126,0.867,0.199c0.473,0.123,0.961,0.262,1.488,0.429
			c0.413,0.124,0.813,0.266,1.12,0.375c0.149,0.055,0.302,0.114,0.452,0.168l0.134,0.049c0.748,0.285,1.483,0.598,2.192,0.936
			l0.19,0.086c1.638,0.793,3.169,1.695,4.54,2.684l0.152,0.111l-0.02,0.027c1.237,0.898,2.436,1.934,3.577,3.078l0.134,0.137
			l-5.078,4.857l-0.131-0.127c-0.961-0.953-2.007-1.828-3.107-2.596l-0.116-0.083c-0.123-0.08-0.24-0.163-0.358-0.241
			c-0.482-0.314-0.968-0.608-1.443-0.877l-0.146-0.084c-0.063-0.037-0.117-0.07-0.179-0.102c-1.245-0.669-2.569-1.231-3.935-1.665
			c-0.084-0.024-0.371-0.105-0.371-0.105c-0.558-0.168-1.129-0.317-1.705-0.442c-0.166-0.035-0.33-0.068-0.494-0.1
			c-0.523-0.103-1.098-0.191-1.741-0.267c-0.069-0.008-0.125-0.014-0.188-0.024c-0.084-0.011-0.168-0.021-0.256-0.029
			c-0.775-0.074-1.5-0.109-2.209-0.109c-0.711,0-1.433,0.035-2.211,0.109c-0.084,0.008-0.174,0.022-0.252,0.029l-0.188,0.024
			c-0.641,0.076-1.213,0.164-1.738,0.267c-0.166,0.032-0.334,0.065-0.492,0.1c-0.58,0.125-1.152,0.274-1.708,0.442
			c0,0-0.31,0.087-0.374,0.109c-1.371,0.43-2.691,0.992-3.937,1.663c-0.062,0.034-0.118,0.067-0.182,0.104
			c-0.045,0.026-0.09,0.053-0.14,0.08c-0.51,0.288-0.993,0.582-1.444,0.877c-0.158,0.106-0.315,0.215-0.474,0.324
			c-6.219,4.327-9.938,11.415-9.938,18.966c0,7.548,3.719,14.639,9.938,18.962c0.177,0.121,0.323,0.223,0.474,0.328
			c0.445,0.292,0.93,0.583,1.444,0.875c0.05,0.03,0.096,0.053,0.149,0.086c0.06,0.036,0.11,0.063,0.172,0.102
			c1.249,0.666,2.573,1.225,3.937,1.664c0.078,0.022,0.158,0.041,0.24,0.066l0.131,0.036c0.559,0.169,1.131,0.315,1.711,0.443
			c0.16,0.037,0.328,0.068,0.492,0.105c0.533,0.102,1.104,0.19,1.745,0.262l0.175,0.022c0.084,0.012,0.174,0.025,0.258,0.032
			c0.789,0.079,1.512,0.116,2.211,0.116s1.42-0.037,2.209-0.116c0.088-0.007,0.172-0.02,0.256-0.032l0.188-0.022
			c0.636-0.072,1.208-0.16,1.741-0.262c0.164-0.037,0.328-0.068,0.494-0.105c0.576-0.128,1.147-0.274,1.705-0.443l0.043-0.01
			c0.107-0.033,0.217-0.063,0.328-0.092c1.365-0.439,2.689-0.998,3.935-1.664c0.054-0.029,0.11-0.066,0.17-0.098
			c0.05-0.031,0.103-0.06,0.155-0.09c0.484-0.274,0.968-0.566,1.443-0.875c0.108-0.072,0.217-0.152,0.328-0.224l0.146-0.104
			c1.101-0.769,2.154-1.638,3.107-2.591l0.131-0.129l5.078,4.857l-0.134,0.133c-1.142,1.148-2.34,2.18-3.577,3.087l-0.133,0.134
			c-1.371,0.989-2.902,1.894-4.54,2.679c-0.034,0.024-0.19,0.086-0.19,0.086c-0.717,0.343-1.457,0.655-2.192,0.937l-0.065,0.022
			c-0.172,0.07-0.345,0.138-0.521,0.196c-0.435,0.15-0.784,0.272-1.12,0.376c-0.518,0.164-1.001,0.305-1.488,0.423
			c-0.254,0.069-0.509,0.122-0.771,0.182l-0.168,0.041c-0.379,0.081-0.754,0.163-1.135,0.227l-0.238,0.045
			c-0.188,0.037-0.377,0.074-0.571,0.102c-0.571,0.085-1.176,0.158-1.851,0.215c-0.221,0.028-0.444,0.037-0.664,0.056
			c-0.727,0.05-1.375,0.077-1.989,0.082h-0.088H253.441z M147.197,109.136c12.353,0,22.394-10.048,22.394-22.393
			c0-12.348-10.041-22.393-22.394-22.393c-0.047,0-8.894,0.004-13.702,0.008v44.765C138.304,109.13,147.15,109.136,147.197,109.136
			 M222.864,83.261c-1.7-11.201-11.468-19.616-22.807-19.616c-11.342,0-21.115,8.415-22.811,19.616H222.864z"/>
		<path clip-path="url(#SVGID_4_)" fill="#020202" d="M253.543,56.805c0.035,0,0.065,0.004,0.088,0.004
			c0.664,0.002,1.324,0.032,1.979,0.077c0.22,0.016,0.438,0.032,0.655,0.052c0.621,0.055,1.23,0.128,1.848,0.222
			c0.266,0.039,0.534,0.094,0.797,0.143c0.379,0.068,0.756,0.144,1.127,0.227c0.316,0.066,0.625,0.137,0.934,0.216
			c0.496,0.126,0.99,0.27,1.48,0.424c0.379,0.117,0.748,0.244,1.114,0.375c0.194,0.069,0.388,0.145,0.584,0.215
			c0.737,0.281,1.464,0.593,2.177,0.929c0.063,0.026,0.125,0.057,0.184,0.085c1.584,0.765,3.103,1.648,4.519,2.668l-0.019,0.029
			c1.324,0.953,2.556,2.019,3.701,3.169l-4.808,4.599c-0.966-0.959-2.015-1.837-3.134-2.617c-0.163-0.11-0.314-0.22-0.479-0.325
			c-0.472-0.312-0.959-0.607-1.451-0.884c-0.115-0.059-0.221-0.127-0.33-0.188c-1.254-0.678-2.586-1.239-3.969-1.678
			c-0.123-0.036-0.242-0.07-0.369-0.107c-0.563-0.169-1.142-0.318-1.723-0.444c-0.168-0.037-0.33-0.068-0.496-0.102
			c-0.578-0.114-1.166-0.201-1.759-0.271c-0.146-0.014-0.291-0.039-0.446-0.051c-0.734-0.072-1.47-0.112-2.226-0.112
			c-0.755,0-1.493,0.04-2.229,0.112c-0.15,0.012-0.297,0.037-0.443,0.051c-0.596,0.07-1.178,0.157-1.756,0.271
			c-0.17,0.034-0.334,0.065-0.498,0.102c-0.58,0.126-1.157,0.275-1.721,0.444c-0.125,0.037-0.252,0.071-0.371,0.107
			c-1.38,0.439-2.708,1-3.967,1.678c-0.114,0.061-0.217,0.129-0.329,0.188c-0.497,0.277-0.982,0.572-1.456,0.884
			c-0.161,0.105-0.316,0.215-0.477,0.325c-6.045,4.208-10.015,11.196-10.015,19.121c0,7.919,3.97,14.912,10.015,19.121
			c0.16,0.107,0.315,0.217,0.477,0.326c0.474,0.311,0.959,0.603,1.456,0.88c0.112,0.062,0.215,0.129,0.329,0.189
			c1.259,0.675,2.587,1.238,3.967,1.675c0.119,0.037,0.246,0.074,0.371,0.111c0.563,0.17,1.141,0.315,1.721,0.445
			c0.164,0.036,0.328,0.064,0.498,0.1c0.578,0.109,1.16,0.201,1.756,0.271c0.146,0.016,0.293,0.041,0.443,0.053
			c0.736,0.072,1.475,0.113,2.229,0.113c0.756,0,1.491-0.041,2.226-0.113c0.155-0.012,0.301-0.037,0.446-0.053
			c0.593-0.07,1.181-0.162,1.759-0.271c0.166-0.036,0.328-0.064,0.496-0.1c0.581-0.13,1.159-0.275,1.723-0.445
			c0.127-0.037,0.246-0.074,0.369-0.111c1.383-0.437,2.715-1,3.969-1.675c0.109-0.06,0.215-0.127,0.33-0.189
			c0.492-0.277,0.979-0.569,1.451-0.88c0.164-0.109,0.315-0.219,0.479-0.326c1.119-0.784,2.168-1.658,3.134-2.618l4.808,4.596
			c-1.146,1.154-2.377,2.223-3.701,3.169l0.019,0.032c-1.416,1.02-2.935,1.9-4.519,2.666c-0.059,0.029-0.121,0.057-0.184,0.09
			c-0.713,0.336-1.439,0.644-2.177,0.923c-0.196,0.073-0.39,0.145-0.584,0.217c-0.366,0.128-0.735,0.254-1.114,0.372
			c-0.49,0.158-0.984,0.296-1.48,0.422c-0.309,0.082-0.617,0.154-0.934,0.218c-0.371,0.086-0.748,0.159-1.127,0.228
			c-0.263,0.049-0.531,0.104-0.797,0.145c-0.617,0.094-1.227,0.162-1.848,0.217c-0.217,0.024-0.436,0.036-0.655,0.056
			c-0.655,0.04-1.315,0.073-1.979,0.077h-0.088h-0.021h-0.024h-0.084c-0.668-0.004-1.326-0.037-1.976-0.077
			c-0.218-0.02-0.442-0.032-0.66-0.056c-0.622-0.055-1.235-0.123-1.84-0.217c-0.272-0.041-0.537-0.096-0.804-0.145
			c-0.379-0.069-0.754-0.142-1.127-0.228c-0.313-0.064-0.627-0.136-0.936-0.218c-0.498-0.126-0.992-0.264-1.483-0.422
			c-0.373-0.118-0.738-0.244-1.107-0.372c-0.197-0.072-0.392-0.144-0.581-0.217c-0.739-0.279-1.471-0.587-2.177-0.923
			c-0.07-0.033-0.127-0.061-0.188-0.09c-1.587-0.766-3.106-1.646-4.518-2.666l0.017-0.032c-6.685-4.824-11.289-12.352-12.236-20.977
			h-46.77c1.606,11.299,11.289,19.993,23.029,19.993c5.213,0,10.009-1.735,13.888-4.638v-0.037c0.866-0.649,1.705-1.348,2.468-2.106
			l4.807,4.596c-5.43,6.503-15.416,8.832-21.162,8.832c-11.848,0-22.083-6.875-26.935-16.857
			c-4.787,9.464-14.591,15.952-25.925,15.952c-0.085,0-20.386-0.003-20.475-0.003v-3.916v-2.545V64.176v-4.895v-1.562
			c0.089,0,20.39-0.007,20.475-0.007c11.334,0,21.138,6.494,25.925,15.957c4.851-9.981,15.087-16.864,26.935-16.864
			c11.695,0,21.822,6.716,26.748,16.494c2.177-4.307,5.35-8.023,9.229-10.828l-0.017-0.029c1.411-1.02,2.931-1.903,4.518-2.668
			c0.062-0.028,0.118-0.059,0.188-0.085c0.706-0.336,1.438-0.648,2.177-0.929c0.189-0.072,0.384-0.146,0.581-0.215
			c0.369-0.131,0.734-0.258,1.107-0.375c0.491-0.154,0.985-0.298,1.483-0.424c0.309-0.079,0.623-0.15,0.936-0.216
			c0.373-0.083,0.748-0.159,1.127-0.227c0.267-0.049,0.531-0.104,0.804-0.143c0.604-0.094,1.218-0.167,1.84-0.222
			c0.218-0.02,0.442-0.036,0.66-0.052c0.649-0.045,1.308-0.075,1.976-0.077c0.028,0,0.053-0.004,0.084-0.004h0.018H253.543
			 M177.028,83.448h46.056c-1.603-11.297-11.287-19.991-23.027-19.991C188.317,63.457,178.634,72.151,177.028,83.448
			 M147.197,109.324c12.473,0,22.582-10.113,22.582-22.581c0-12.471-10.109-22.583-22.582-22.583c-0.046,0-9.126,0.006-13.891,0.01
			v45.142C138.071,109.318,147.151,109.324,147.197,109.324 M253.543,56.428h-0.021h-0.024c-0.017,0-0.037,0.004-0.06,0.004h-0.024
			c-0.613,0.003-1.263,0.03-2.006,0.078l-0.025,0.003c-0.211,0.016-0.424,0.03-0.637,0.049c-0.691,0.063-1.295,0.135-1.865,0.224
			c-0.182,0.031-0.361,0.064-0.539,0.095c-0.09,0.018-0.18,0.037-0.272,0.051c-0.422,0.078-0.795,0.154-1.14,0.23l-0.11,0.025
			c-0.274,0.061-0.562,0.122-0.843,0.194c-0.473,0.124-0.97,0.265-1.501,0.432c-0.414,0.127-0.813,0.269-1.118,0.38
			c-0.201,0.069-0.394,0.142-0.589,0.216c-0.764,0.29-1.511,0.606-2.209,0.941l-0.053,0.023c-0.049,0.022-0.098,0.043-0.142,0.067
			c-1.64,0.789-3.182,1.701-4.566,2.699l-0.286,0.203l0.017,0.028c-3.601,2.671-6.605,6.152-8.725,10.116
			c-2.487-4.661-6.151-8.599-10.635-11.419c-4.818-3.033-10.392-4.639-16.113-4.639c-5.801,0-11.432,1.642-16.291,4.749
			c-4.528,2.889-8.199,6.911-10.651,11.667c-2.418-4.497-5.965-8.297-10.301-11.021c-4.673-2.933-10.072-4.487-15.617-4.487
			c-0.197,0-20.39,0.006-20.481,0.006l-0.369,0.01v0.367v1.562v4.895v45.129v2.545v3.916v0.372l0.371,0.005
			c0.089,0,20.282,0.004,20.479,0.004c5.545,0,10.944-1.553,15.617-4.485c4.336-2.728,7.883-6.528,10.301-11.021
			c2.452,4.754,6.123,8.774,10.651,11.662c4.859,3.113,10.49,4.748,16.291,4.748c4.83,0,15.52-1.869,21.451-8.965l0.228-0.268
			l-0.254-0.242l-4.81-4.604l-0.266-0.255l-0.257,0.262c-0.687,0.68-1.479,1.36-2.431,2.069l-0.148,0.116v0.036
			c-3.964,2.916-8.635,4.452-13.514,4.452c-5.551,0-10.898-2.011-15.071-5.666c-4.013-3.521-6.677-8.33-7.52-13.576h45.999
			c0.996,8.238,5.372,15.745,12.064,20.707l-0.017,0.022l0.286,0.205c1.385,0.995,2.927,1.91,4.572,2.705
			c0.037,0.018,0.077,0.036,0.126,0.059l0.063,0.027c0.712,0.336,1.447,0.653,2.209,0.939c0.195,0.075,0.388,0.145,0.589,0.217
			c0.43,0.161,0.784,0.276,1.118,0.384c0.521,0.159,1.011,0.304,1.501,0.422c0.25,0.069,0.498,0.122,0.744,0.179l0.209,0.044
			c0.371,0.082,0.754,0.164,1.138,0.227l0.233,0.045c0.186,0.037,0.379,0.074,0.574,0.1c0.576,0.091,1.192,0.168,1.871,0.228
			c0.213,0.018,0.426,0.033,0.645,0.05l0.018,0.003c0.729,0.051,1.385,0.074,1.998,0.078h0.025h0.066h0.024h0.021h0.07h0.018
			c0.617-0.004,1.275-0.027,2.006-0.078c0.224-0.02,0.443-0.035,0.666-0.053c0.672-0.06,1.287-0.137,1.865-0.228
			c0.192-0.026,0.379-0.063,0.569-0.095l0.244-0.05c0.362-0.063,0.733-0.137,1.135-0.227l0.177-0.037
			c0.256-0.055,0.516-0.117,0.768-0.186c0.496-0.118,0.984-0.263,1.509-0.429c0.325-0.098,0.687-0.216,1.123-0.377
			c0.177-0.061,0.347-0.125,0.521-0.194l0.063-0.023c0.748-0.279,1.487-0.594,2.211-0.939c0.03-0.014,0.06-0.027,0.083-0.037
			c0.036-0.018,0.072-0.035,0.109-0.053c1.645-0.791,3.189-1.706,4.566-2.701l0.305-0.218l-0.018-0.022
			c1.182-0.881,2.344-1.889,3.448-2.994l0.265-0.272l-0.277-0.262l-4.803-4.604l-0.267-0.255l-0.257,0.262
			c-0.95,0.94-1.989,1.809-3.09,2.575l-0.146,0.102c-0.105,0.073-0.212,0.147-0.322,0.219c-0.467,0.312-0.945,0.6-1.431,0.867
			c-0.052,0.031-0.106,0.063-0.159,0.092c-0.057,0.031-0.109,0.067-0.162,0.092c-1.232,0.668-2.552,1.221-3.902,1.65
			c-0.106,0.038-0.215,0.067-0.326,0.097l-0.034,0.013c-0.563,0.166-1.132,0.31-1.7,0.437c-0.166,0.029-0.328,0.067-0.488,0.099
			c-0.535,0.102-1.098,0.188-1.728,0.268c-0.062,0.004-0.131,0.01-0.188,0.022c-0.09,0.005-0.168,0.018-0.252,0.031
			c-0.781,0.072-1.5,0.109-2.19,0.109c-0.692,0-1.407-0.037-2.192-0.109c-0.082-0.013-0.174-0.026-0.258-0.031
			c-0.057-0.012-0.119-0.018-0.182-0.022c-0.629-0.08-1.195-0.166-1.729-0.268c-0.156-0.032-0.322-0.07-0.482-0.099
			c-0.576-0.127-1.145-0.271-1.698-0.437l-0.132-0.043c-0.08-0.017-0.159-0.04-0.238-0.067c-1.348-0.429-2.662-0.982-3.898-1.65
			c-0.059-0.031-0.115-0.061-0.171-0.092c-0.048-0.029-0.101-0.061-0.152-0.092c-0.508-0.284-0.988-0.576-1.431-0.867
			c-0.151-0.096-0.297-0.201-0.441-0.305l-0.025-0.016c-6.171-4.294-9.857-11.324-9.857-18.811c0-7.487,3.687-14.52,9.857-18.812
			c0.155-0.109,0.309-0.215,0.467-0.321c0.444-0.295,0.929-0.586,1.436-0.868c0.047-0.027,0.094-0.054,0.144-0.086
			c0.056-0.035,0.116-0.066,0.175-0.099c1.235-0.666,2.548-1.221,3.902-1.652c0.063-0.018,0.135-0.04,0.204-0.057l0.162-0.05
			c0.554-0.165,1.122-0.312,1.694-0.434c0.164-0.036,0.33-0.07,0.486-0.1c0.528-0.104,1.092-0.191,1.729-0.268
			c0.063-0.006,0.125-0.014,0.189-0.021c0.076-0.01,0.168-0.024,0.25-0.03c0.77-0.076,1.489-0.109,2.192-0.109
			c0.706,0,1.42,0.033,2.19,0.109c0.084,0.006,0.162,0.02,0.252,0.028c0.058,0.009,0.127,0.017,0.188,0.023
			c0.634,0.077,1.203,0.164,1.728,0.268c0.162,0.03,0.322,0.064,0.488,0.097c0.568,0.125,1.137,0.272,1.693,0.437l0.109,0.03
			c0.082,0.028,0.174,0.053,0.258,0.08c1.357,0.428,2.67,0.983,3.908,1.649c0.051,0.028,0.11,0.063,0.164,0.097
			c0.055,0.03,0.1,0.057,0.151,0.088c0.479,0.264,0.96,0.557,1.431,0.868c0.125,0.078,0.236,0.158,0.354,0.24l0.121,0.081
			c1.095,0.762,2.134,1.628,3.084,2.575l0.257,0.258l0.267-0.254l4.803-4.602l0.277-0.263l-0.265-0.27
			c-1.104-1.104-2.267-2.11-3.448-2.991l0.018-0.026l-0.305-0.219c-1.377-0.997-2.922-1.906-4.574-2.702
			c-0.029-0.015-0.065-0.035-0.102-0.048l-0.083-0.039c-0.711-0.34-1.459-0.653-2.206-0.941l-0.132-0.05
			c-0.151-0.058-0.304-0.112-0.464-0.166c-0.305-0.111-0.7-0.253-1.123-0.38c-0.527-0.167-1.02-0.308-1.502-0.432
			c-0.288-0.072-0.579-0.139-0.87-0.202l-0.074-0.017c-0.372-0.082-0.747-0.157-1.135-0.23c-0.101-0.018-0.188-0.033-0.287-0.051
			c-0.175-0.034-0.351-0.067-0.526-0.095c-0.57-0.089-1.18-0.161-1.865-0.224c-0.223-0.019-0.442-0.033-0.662-0.049
			c-0.746-0.051-1.404-0.078-2.01-0.081h-0.022C253.586,56.432,253.565,56.428,253.543,56.428 M177.466,83.072
			c0.843-5.245,3.507-10.052,7.52-13.574c4.172-3.654,9.52-5.664,15.071-5.664c5.545,0,10.9,2.01,15.066,5.664
			c4.018,3.522,6.676,8.329,7.523,13.574H177.466z M133.682,64.547c4.847-0.008,13.469-0.01,13.515-0.01
			c12.246,0,22.206,9.961,22.206,22.206c0,12.242-9.96,22.204-22.206,22.204c-0.046,0-8.668-0.005-13.515-0.013V64.547z"/>
		<g opacity="0.7" clip-path="url(#SVGID_4_)">
			<g>
				<defs>
					<rect id="SVGID_5_" x="126.722" y="56.805" width="264.602" height="219.393"/>
				</defs>
				<clipPath id="SVGID_6_">
					<use xlink:href="#SVGID_5_"  overflow="visible"/>
				</clipPath>
			</g>
		</g>
		<path clip-path="url(#SVGID_4_)" fill="#020202" d="M287.99,63.098c0,1.364-0.485,2.526-1.45,3.488
			c-0.957,0.967-2.125,1.45-3.487,1.45c-1.359,0-2.523-0.483-3.49-1.45c-0.961-0.962-1.441-2.124-1.441-3.488
			c0-1.359,0.48-2.523,1.441-3.488c0.967-0.961,2.131-1.445,3.49-1.445c1.362,0,2.53,0.484,3.487,1.445
			C287.505,60.574,287.99,61.738,287.99,63.098 M286.9,63.098c0-1.058-0.377-1.97-1.125-2.732c-0.754-0.76-1.658-1.143-2.723-1.143
			c-1.061,0-1.964,0.383-2.716,1.143c-0.754,0.762-1.123,1.674-1.123,2.732c0,1.063,0.369,1.974,1.123,2.733
			c0.752,0.763,1.655,1.142,2.716,1.142c1.064,0,1.969-0.379,2.723-1.142C286.523,65.071,286.9,64.161,286.9,63.098 M285.727,65.438
			h-1.498l-1.426-1.803h-0.47v1.803h-1.159v-4.911h1.791c0.325,0,0.594,0.012,0.795,0.039c0.205,0.027,0.398,0.093,0.602,0.205
			c0.217,0.129,0.381,0.28,0.479,0.457c0.096,0.176,0.146,0.397,0.146,0.668c0,0.364-0.098,0.66-0.291,0.889
			c-0.194,0.226-0.451,0.406-0.754,0.534L285.727,65.438z M283.691,61.986c0-0.102-0.016-0.197-0.062-0.281
			c-0.045-0.089-0.114-0.155-0.211-0.21c-0.084-0.05-0.187-0.081-0.298-0.097s-0.247-0.021-0.42-0.021h-0.368v1.383h0.284
			c0.17,0,0.334-0.011,0.479-0.042c0.155-0.027,0.266-0.076,0.355-0.146c0.076-0.061,0.145-0.136,0.179-0.234
			C283.676,62.245,283.691,62.127,283.691,61.986"/>
		<g opacity="0.7" clip-path="url(#SVGID_4_)">
			<g>
				<defs>
					<rect id="SVGID_7_" x="127.511" y="56.805" width="264.602" height="219.393"/>
				</defs>
				<clipPath id="SVGID_8_">
					<use xlink:href="#SVGID_7_"  overflow="visible"/>
				</clipPath>
			</g>
		</g>
		<polygon clip-path="url(#SVGID_4_)" fill="#FFDA92" points="91.263,59.286 47.756,6.541 4.25,59.286 4.25,111.314 47.729,139.481 
			91.263,111.852 		"/>
		<polygon clip-path="url(#SVGID_4_)" fill="#FFFFFF" points="47.717,139.168 91.223,111.557 91.223,58.991 47.717,6.245 
			47.717,61.512 		"/>
		<polygon clip-path="url(#SVGID_4_)" fill="#FFFFFF" points="47.69,139.152 47.717,139.136 47.717,61.479 47.717,6.212 
			4.211,58.958 4.211,110.985 		"/>
	</g>
	<g clip-path="url(#SVGID_2_)">
		<defs>
			<path id="SVGID_9_" d="M6.592,110.041V60.127l41.165-49.906l41.164,49.906v50.438l-41.179,26.134L6.592,110.041z M1.909,58.445
				v54.142l45.807,29.676l45.889-29.125V58.445L47.757,2.861L1.909,58.445z"/>
		</defs>
		<clipPath id="SVGID_10_">
			<use xlink:href="#SVGID_9_"  overflow="visible"/>
		</clipPath>
		
			<linearGradient id="SVGID_11_" gradientUnits="userSpaceOnUse" x1="-4.882813e-004" y1="276.1982" x2="0.9995" y2="276.1982" gradientTransform="matrix(91.6957 0 0 -91.6957 1.9375 25398.7656)">
			<stop  offset="0" style="stop-color:#232020"/>
			<stop  offset="0.5399" style="stop-color:#232020"/>
			<stop  offset="0.6024" style="stop-color:#262323"/>
			<stop  offset="0.674" style="stop-color:#2D2B2B"/>
			<stop  offset="0.7501" style="stop-color:#393737"/>
			<stop  offset="0.8293" style="stop-color:#494848"/>
			<stop  offset="0.9109" style="stop-color:#606060"/>
			<stop  offset="0.9935" style="stop-color:#7C7E80"/>
			<stop  offset="1" style="stop-color:#7F8183"/>
		</linearGradient>
		<rect x="1.909" y="2.861" clip-path="url(#SVGID_10_)" fill="url(#SVGID_11_)" width="91.696" height="139.402"/>
	</g>
	<g clip-path="url(#SVGID_2_)">
		<defs>
			<rect id="SVGID_12_" width="392.113" height="276.198"/>
		</defs>
		<clipPath id="SVGID_13_">
			<use xlink:href="#SVGID_12_"  overflow="visible"/>
		</clipPath>
		<polygon clip-path="url(#SVGID_13_)" fill="#232020" points="90.766,55.832 90.766,108.398 47.232,136.027 3.753,107.86 
			3.753,55.832 47.708,83.999 		"/>
	</g>
	<g clip-path="url(#SVGID_2_)">
		<defs>
			<polygon id="SVGID_14_" points="47.724,87.453 3.77,59.286 3.77,111.314 47.249,139.481 90.782,111.852 90.782,59.286 			"/>
		</defs>
		<clipPath id="SVGID_15_">
			<use xlink:href="#SVGID_14_"  overflow="visible"/>
		</clipPath>
		
			<radialGradient id="SVGID_16_" cx="0" cy="276.1982" r="1" gradientTransform="matrix(-47.0777 0 0 47.0777 86.0313 -12909.9424)" gradientUnits="userSpaceOnUse">
			<stop  offset="0" style="stop-color:#009ADE"/>
			<stop  offset="0.237" style="stop-color:#009ADE"/>
			<stop  offset="1" style="stop-color:#0054A6"/>
		</radialGradient>
		<rect x="3.77" y="59.286" clip-path="url(#SVGID_15_)" fill="url(#SVGID_16_)" width="87.012" height="80.195"/>
	</g>
	<g clip-path="url(#SVGID_2_)">
		<defs>
			<path id="SVGID_17_" d="M25.061,33.99c0,0,21.78,26.552,45.336,0L47.757,6.541L25.061,33.99z"/>
		</defs>
		<clipPath id="SVGID_18_">
			<use xlink:href="#SVGID_17_"  overflow="visible"/>
		</clipPath>
		
			<linearGradient id="SVGID_19_" gradientUnits="userSpaceOnUse" x1="0" y1="276.1963" x2="1" y2="276.1963" gradientTransform="matrix(-8.7238 44.1318 44.1318 8.7238 -12136.0352 -2402.7285)">
			<stop  offset="0" style="stop-color:#232020"/>
			<stop  offset="0.4294" style="stop-color:#232020"/>
			<stop  offset="1" style="stop-color:#949699"/>
		</linearGradient>
		<polygon clip-path="url(#SVGID_18_)" fill="url(#SVGID_19_)" points="80.67,8.572 68.692,69.167 14.788,58.512 26.766,-2.083 		
			"/>
	</g>
	<g clip-path="url(#SVGID_2_)">
		<defs>
			<rect id="SVGID_20_" width="392.113" height="276.198"/>
		</defs>
		<clipPath id="SVGID_21_">
			<use xlink:href="#SVGID_20_"  overflow="visible"/>
		</clipPath>
		<path clip-path="url(#SVGID_21_)" fill="#232020" d="M47.729,45.784c6.823,0.132,14.641-2.747,22.668-11.794L47.756,6.541
			l-0.027,0.033V45.784z"/>
	</g>
	<g clip-path="url(#SVGID_2_)">
		<defs>
			<path id="SVGID_22_" d="M25.088,33.986c8.027,9.046,15.846,11.925,22.669,11.793V6.569L47.73,6.536L25.088,33.986z"/>
		</defs>
		<clipPath id="SVGID_23_">
			<use xlink:href="#SVGID_22_"  overflow="visible"/>
		</clipPath>
		
			<linearGradient id="SVGID_24_" gradientUnits="userSpaceOnUse" x1="0" y1="276.2246" x2="1" y2="276.2246" gradientTransform="matrix(8.6418 43.7171 -43.7171 8.6418 12108.6885 -2378.4316)">
			<stop  offset="0" style="stop-color:#232020"/>
			<stop  offset="0.4294" style="stop-color:#232020"/>
			<stop  offset="1" style="stop-color:#949699"/>
		</linearGradient>
		<polygon clip-path="url(#SVGID_23_)" fill="url(#SVGID_24_)" points="17.597,8.017 25.94,50.224 55.248,44.431 46.904,2.224 		"/>
	</g>
	<g clip-path="url(#SVGID_2_)">
		<defs>
			<path id="SVGID_25_" d="M6.565,110.041V60.127L47.73,10.221l41.164,49.906v50.438l-41.179,26.134L6.565,110.041z M1.882,58.445
				v54.142l45.807,29.676l45.888-29.125V58.445L47.73,2.861L1.882,58.445z"/>
		</defs>
		<clipPath id="SVGID_26_">
			<use xlink:href="#SVGID_25_"  overflow="visible"/>
		</clipPath>
		
			<linearGradient id="SVGID_27_" gradientUnits="userSpaceOnUse" x1="0" y1="276.1982" x2="1" y2="276.1982" gradientTransform="matrix(91.6956 0 0 -91.6956 1.875 25398.7383)">
			<stop  offset="0" style="stop-color:#232020"/>
			<stop  offset="0.5399" style="stop-color:#232020"/>
			<stop  offset="0.6024" style="stop-color:#262323"/>
			<stop  offset="0.674" style="stop-color:#2D2B2B"/>
			<stop  offset="0.7501" style="stop-color:#393737"/>
			<stop  offset="0.8293" style="stop-color:#494848"/>
			<stop  offset="0.9109" style="stop-color:#606060"/>
			<stop  offset="0.9935" style="stop-color:#7C7E80"/>
			<stop  offset="1" style="stop-color:#7F8183"/>
		</linearGradient>
		<rect x="1.882" y="2.861" clip-path="url(#SVGID_26_)" fill="url(#SVGID_27_)" width="91.695" height="139.402"/>
	</g>
	<g clip-path="url(#SVGID_2_)">
		<defs>
			<rect id="SVGID_28_" width="392.113" height="276.198"/>
		</defs>
		<clipPath id="SVGID_29_">
			<use xlink:href="#SVGID_28_"  overflow="visible"/>
		</clipPath>
		<path clip-path="url(#SVGID_29_)" fill="#636464" d="M47.756,45.784V6.574L25.088,33.99C25.088,33.99,34.556,45.528,47.756,45.784
			"/>
		<polygon clip-path="url(#SVGID_29_)" fill="#31489E" points="90.75,111.853 90.75,59.286 47.723,87.432 47.723,139.159 		"/>
		<polygon clip-path="url(#SVGID_29_)" fill="#41B8EA" points="47.184,139.305 47.69,138.983 47.69,87.256 47.66,87.276 
			3.705,59.109 3.705,111.138 		"/>
		<path clip-path="url(#SVGID_29_)" fill="#232020" d="M47.73,0l47.729,57.865v56.939l-47.771,30.318L0,114.23V57.865L47.73,0z
			 M88.921,60.127L47.676,10.16L6.565,60.77v49.271l41.177,26.659l41.152-26.135L88.921,60.127z"/>
		<polygon clip-path="url(#SVGID_29_)" fill="#232020" points="88.921,60.127 88.894,110.564 47.742,136.699 47.688,145.123 
			95.459,114.805 95.459,57.865 47.73,0 47.757,10.221 		"/>
		<rect x="47.13" y="7.658" clip-path="url(#SVGID_29_)" fill="#232020" width="1.301" height="130.612"/>
	</g>
</g>
</svg>
